<svg width="100" height="64" viewBox="0 0 100 64" fill="none" xmlns="http://www.w3.org/2000/svg">
<path d="M0 40.7755C0.0488175 40.5314 0.0976351 40.2385 0.146453 39.9944C0.439358 38.5299 1.26926 37.5535 2.58733 36.9189C4.05186 36.2355 5.61402 35.9914 7.17618 35.9426C10.3005 35.7961 13.376 35.9426 16.4515 36.5772C16.9885 36.6748 17.2326 36.8701 17.1838 37.5047C17.135 38.4322 17.1838 39.4086 17.1838 40.3849C16.061 40.1409 15.0358 39.8968 14.0106 39.7015C11.4721 39.311 8.98243 39.2621 6.44391 39.5062C6.00456 39.555 5.5652 39.7015 5.17466 39.8968C4.63767 40.092 4.39358 40.5314 4.4424 41.1172C4.4424 41.6542 4.7353 41.9959 5.17466 42.1424C6.10219 42.3865 7.07854 42.6306 8.00607 42.777C10.154 43.1187 12.302 43.4116 14.4012 43.7045H14.45C17.379 44.4368 18.5995 46.2431 17.916 49.6603C17.6231 50.9784 16.7932 52.0035 15.5728 52.4429C14.4012 52.8822 13.1807 53.224 11.9603 53.3704C8.25016 53.7121 4.54003 53.468 0.927533 52.5405C0.829898 52.5405 0.732263 52.4917 0.634628 52.4429C0.634628 51.1736 0.634628 49.9044 0.634628 48.6839C1.80625 48.9768 2.97787 49.2697 4.14949 49.5138C6.83445 49.9532 9.51942 50.1485 12.2044 49.7091C12.4973 49.6603 12.7902 49.5626 13.0343 49.465C13.5225 49.2697 13.7665 48.8792 13.7665 48.2934C13.7665 47.7564 13.4736 47.4147 12.9855 47.317C11.9603 47.073 10.9839 46.9265 9.95878 46.78C8.00607 46.4871 6.05337 46.1942 4.14949 45.8525C3.51486 45.7061 2.83142 45.4132 2.24561 45.1203C1.02517 44.4368 0.292905 43.4116 0.146453 41.9959C0.146453 41.8495 0.0976351 41.703 0.0488175 41.5566C0 41.2637 0 41.0196 0 40.7755Z" fill="#002F61"/>
<path d="M2.24561 63.5245C2.19679 63.378 2.14797 63.2804 2.14797 63.1339C2.14797 61.0836 2.14797 58.9844 2.14797 56.9341C2.14797 56.7876 2.29442 56.6412 2.39206 56.4947C2.58733 56.5924 2.83142 56.69 2.92905 56.8365C3.71013 58.2033 4.4424 59.6191 5.22348 60.9859C5.32111 61.1812 5.41875 61.3765 5.61402 61.6694C5.66283 61.4253 5.66283 61.2788 5.66283 61.1324C5.66283 59.7655 5.66283 58.3986 5.66283 57.0317C5.66283 56.8365 5.8581 56.6412 6.00456 56.4947C6.10219 56.69 6.34628 56.8365 6.34628 57.0317C6.3951 58.9844 6.34628 60.9859 6.34628 62.9386C6.34628 63.1339 6.29746 63.3292 6.24864 63.5245C6.10219 63.5245 5.95574 63.5245 5.76047 63.5245C4.83294 61.8158 3.9054 60.1072 2.97787 58.3986C2.88023 59.912 2.88023 61.3277 2.83142 62.7922C2.83142 63.0363 2.73378 63.2804 2.68496 63.5245C2.53851 63.5245 2.39206 63.5245 2.24561 63.5245Z" fill="#002F61"/>
<path d="M48.7199 63.5245C48.6711 63.2804 48.6223 63.0851 48.6223 62.841C48.6223 60.9371 48.6223 59.0821 48.6223 57.1782C48.6223 56.9829 48.7687 56.7388 48.8663 56.5436C49.0616 56.69 49.3545 56.7876 49.4522 56.9829C50.3309 58.4963 51.1608 60.0584 52.0883 61.7182C52.1371 61.4253 52.1371 61.2789 52.1371 61.1812C52.1371 59.8143 52.1371 58.4474 52.1371 57.0805C52.1371 56.8853 52.3324 56.69 52.4788 56.5436C52.5765 56.7388 52.8206 56.8853 52.8206 57.0805C52.8694 59.0332 52.8206 61.0348 52.8206 62.9875C52.8206 63.1827 52.7718 63.378 52.7229 63.5733C52.5765 63.5733 52.43 63.5733 52.2348 63.5733C51.3072 61.8647 50.3797 60.156 49.4033 58.4474C49.3057 59.9608 49.3057 61.3765 49.3057 62.841C49.3057 63.0851 49.2081 63.3292 49.2081 63.5733C49.0616 63.5245 48.9152 63.5245 48.7199 63.5245Z" fill="#002F61"/>
<path d="M23.7741 63.5245C23.7253 63.2804 23.6765 63.0363 23.6765 62.7922C23.6765 60.9371 23.6765 59.0821 23.6765 57.227C23.6765 56.9829 23.823 56.7388 23.8718 56.4947C24.067 56.6412 24.3599 56.7876 24.4576 56.9829C25.2875 58.4963 26.1174 60.0096 27.0449 61.5229C27.0449 61.3765 27.0937 61.23 27.0937 61.0348C27.0937 59.7167 27.0937 58.3986 27.0937 57.0805C27.0937 56.8365 27.0449 56.4459 27.4355 56.4947C27.5819 56.4947 27.7284 56.8365 27.7284 57.0317C27.7284 58.9844 27.7284 60.9371 27.7284 62.8898C27.7284 63.0851 27.6307 63.2804 27.5331 63.4756C27.4355 63.4756 27.289 63.4756 27.1914 63.4756C26.2638 61.767 25.2875 60.1072 24.3599 58.3986C24.2623 59.8631 24.2623 61.2788 24.2623 62.6946C24.2623 62.9386 24.2135 63.2315 24.1647 63.4756C24.1159 63.5245 23.9206 63.5245 23.7741 63.5245Z" fill="#002F61"/>
<path d="M18.2578 63.5245C18.2089 63.3292 18.1113 63.0851 18.1113 62.8898C18.1113 60.986 18.1113 59.0821 18.1113 57.1782C18.1113 56.6412 18.3066 56.4947 18.7947 56.4947C19.2341 56.5435 19.6735 56.4947 20.1616 56.4947C21.1868 56.4947 21.9679 57.0805 22.2608 58.0569C22.5049 59.0332 22.1632 59.912 21.2844 60.4978C21.2356 60.5466 21.1868 60.5466 21.0892 60.6442C21.4309 61.3765 21.8214 62.1087 22.1632 62.841C22.2608 63.0363 22.212 63.3292 22.212 63.5733C22.0655 63.5733 21.9191 63.5733 21.7238 63.5733C21.3333 62.7434 20.8939 61.8647 20.5034 61.0348C20.4545 60.9371 20.2593 60.7907 20.1128 60.7907C19.7223 60.7419 19.3317 60.7907 18.8436 60.7907C18.8436 61.4253 18.8436 61.9623 18.8436 62.5481C18.8436 62.8898 18.7459 63.2804 18.6971 63.6221C18.5018 63.5245 18.4042 63.5245 18.2578 63.5245ZM18.8436 60.0096C19.3806 60.0096 19.8199 60.0096 20.3081 60.0096C21.0404 59.9608 21.5773 59.375 21.5773 58.6915C21.5773 57.9593 21.138 57.3246 20.4545 57.2758C19.9176 57.227 19.3806 57.2758 18.7947 57.2758C18.8436 58.1545 18.8436 59.0332 18.8436 60.0096Z" fill="#002F61"/>
<path d="M87.0417 63.5245C85.8212 63.0851 85.333 62.2064 85.3819 60.9371C85.4307 60.156 85.3819 59.4238 85.3819 58.6427C85.3819 57.3734 86.2606 56.4947 87.4322 56.4459C88.6038 56.4459 89.5313 57.2758 89.5802 58.5451C89.629 59.4726 89.5802 60.4001 89.5802 61.3765C89.5802 62.4505 88.9455 63.1339 87.9692 63.5245C87.6763 63.5245 87.3834 63.5245 87.0417 63.5245ZM86.1141 60.0096C86.1141 60.4978 86.1141 60.9371 86.1141 61.4253C86.1629 62.2064 86.6999 62.7922 87.481 62.841C88.2133 62.841 88.8479 62.304 88.8967 61.5229C88.9455 60.5466 88.9455 59.5214 88.8967 58.5451C88.8479 57.764 88.2133 57.227 87.481 57.227C86.7487 57.227 86.1629 57.8128 86.1629 58.5939C86.1141 59.0332 86.1141 59.5214 86.1141 60.0096Z" fill="#002F61"/>
<path d="M44.6192 63.5245C43.4476 62.9875 42.9594 62.1087 43.0571 60.8395C43.1059 60.1072 43.0571 59.3261 43.0571 58.5451C43.1059 57.3734 43.9846 56.4947 45.1074 56.4947C46.279 56.4947 47.1577 57.3246 47.2066 58.4963C47.2554 59.2773 47.1577 60.0584 47.2066 60.8395C47.3042 62.1087 46.816 63.0363 45.6444 63.5245C45.3515 63.5245 45.0098 63.5245 44.6192 63.5245ZM46.5231 59.9608C46.5231 59.4726 46.5231 58.9844 46.5231 58.4963C46.4743 57.7152 45.8885 57.1782 45.1074 57.1782C44.3751 57.1782 43.7893 57.764 43.7893 58.5451C43.7893 59.5214 43.7893 60.4978 43.7893 61.4741C43.7893 62.2552 44.3751 62.7922 45.1074 62.841C45.8885 62.841 46.4743 62.304 46.5231 61.5229C46.5719 60.9859 46.5231 60.449 46.5231 59.9608Z" fill="#002F61"/>
<path d="M92.558 63.5245C91.3376 63.0363 90.8982 62.1087 90.9471 60.8395C90.9959 60.1072 90.9471 59.375 90.9471 58.5939C90.9959 57.3246 91.8746 56.4459 93.095 56.4459C94.2666 56.4947 95.0965 57.3734 95.0965 58.6427C95.0965 59.3261 95.0477 60.0584 95.0965 60.7419C95.1942 62.0111 94.7548 62.9386 93.5344 63.4756C93.2415 63.5245 92.8998 63.5245 92.558 63.5245ZM94.4619 59.9608C94.4619 59.4726 94.4619 58.9844 94.4619 58.4963C94.4131 57.764 93.8761 57.227 93.1439 57.1782C92.4116 57.1294 91.777 57.6175 91.7281 58.3498C91.6793 59.4238 91.6793 60.5466 91.7281 61.6206C91.777 62.3528 92.4116 62.841 93.1439 62.7922C93.8761 62.7434 94.4131 62.2064 94.4619 61.4741C94.4619 60.9859 94.4619 60.4978 94.4619 59.9608Z" fill="#002F61"/>
<path d="M80.0119 63.5245C79.9631 63.3292 79.8655 63.1339 79.8655 62.8898C79.8655 60.9371 79.8655 59.0332 79.8655 57.0805C79.8655 56.8365 79.7678 56.4459 80.2072 56.4947C80.3537 56.4947 80.5489 56.8853 80.5489 57.0805C80.5977 57.764 80.5489 58.4963 80.5489 59.2285C81.4765 59.2285 82.3552 59.2285 83.3315 59.2285C83.3315 58.4963 83.2827 57.8128 83.3315 57.0805C83.3315 56.8853 83.5268 56.4947 83.6732 56.4947C84.1126 56.4459 84.015 56.8365 84.015 57.0805C84.015 59.0332 84.015 60.9371 84.015 62.8898C84.015 63.0851 83.9173 63.2804 83.8685 63.4756C83.7221 63.4756 83.5756 63.4756 83.3803 63.4756C83.3803 62.304 83.3803 61.1812 83.3803 59.9608C82.7945 59.9608 82.3552 59.9608 81.867 59.9608C81.4276 59.9608 80.9883 59.9608 80.5001 59.9608C80.5001 60.3025 80.5001 60.4978 80.5001 60.7419C80.4513 61.6694 80.4513 62.5481 80.4025 63.4756C80.3537 63.5245 80.1584 63.5245 80.0119 63.5245Z" fill="#002F61"/>
<path d="M29.2905 63.5245C29.2905 63.2804 29.2417 63.0363 29.2905 62.7922C29.9251 60.8883 30.5598 58.9356 31.1944 57.0317C31.2432 56.8365 31.4873 56.69 31.6338 56.4947C31.7802 56.69 31.9755 56.8365 32.0731 57.0317C32.7077 58.9356 33.3424 60.8883 33.977 62.7922C34.0258 62.9875 33.977 63.2804 33.977 63.5245C33.8305 63.5245 33.6841 63.5245 33.4888 63.5245C33.2936 62.9387 33.0495 62.3528 32.8542 61.767C32.1708 61.767 31.5361 61.767 30.8527 61.767C30.4621 61.767 30.3157 61.8647 30.2181 62.2064C30.1204 62.6457 29.9251 63.0851 29.7299 63.5245C29.5834 63.5245 29.437 63.5245 29.2905 63.5245ZM31.7314 58.1545C31.6826 58.1545 31.6338 58.1545 31.5849 58.1545C31.292 59.0821 30.9503 60.0584 30.6574 61.0348C31.3897 61.0348 31.9755 61.0348 32.6589 61.0348C32.3172 60.0584 32.0243 59.1309 31.7314 58.1545Z" fill="#002F61"/>
<path d="M54.3827 63.5245C54.3339 63.2804 54.2363 63.0363 54.3339 62.841C54.9685 60.8883 55.6032 58.9356 56.2378 57.0317C56.2866 56.8365 56.4819 56.69 56.6283 56.5436C56.7748 56.69 56.9701 56.8365 57.0189 57.0317C57.6535 58.9844 58.2881 60.8883 58.9228 62.841C58.9716 63.0363 58.9228 63.3292 58.9228 63.5733C58.7763 63.5733 58.6299 63.5733 58.4346 63.5733C58.2393 62.9875 58.1905 62.2064 57.7511 61.9135C57.3118 61.6206 56.5795 61.8158 55.9449 61.8158C55.8473 61.8158 55.7496 61.767 55.7008 61.8158C55.5543 61.9135 55.3103 62.0111 55.2126 62.1576C55.0174 62.5969 54.8221 63.0851 54.6756 63.5733C54.578 63.5245 54.4804 63.5245 54.3827 63.5245ZM57.6535 61.0348C57.3118 60.0584 57.0189 59.0821 56.6283 57.9593C56.2378 59.0821 55.9449 60.0096 55.6032 61.0348C56.3354 61.0348 56.9701 61.0348 57.6535 61.0348Z" fill="#002F61"/>
<path d="M13.376 63.5245C13.3272 63.3292 13.2784 63.1339 13.2784 62.8898C13.2784 60.9371 13.2784 59.0332 13.2784 57.0805C13.2784 56.5924 13.4248 56.4459 13.913 56.4459C14.6941 56.4947 15.4752 56.4459 16.2562 56.4459C16.4515 56.4459 16.598 56.6412 16.7444 56.7876C16.598 56.8853 16.4027 57.1294 16.2562 57.1294C15.524 57.1782 14.7917 57.1294 14.0106 57.1294C14.0106 57.8616 14.0106 58.4963 14.0106 59.2285C14.5476 59.2285 15.0846 59.1797 15.5728 59.2285C15.7192 59.2285 15.8657 59.4238 16.0121 59.5214C15.8657 59.6679 15.7192 59.8631 15.524 59.8631C15.0358 59.912 14.4988 59.8631 13.9618 59.8631C13.9618 60.7907 13.9618 61.7182 13.9618 62.6946C14.6453 62.6946 15.3287 62.6946 16.061 62.6946C16.7444 62.6946 16.7932 62.7434 16.6468 63.378C15.524 63.5245 14.45 63.5245 13.376 63.5245Z" fill="#002F61"/>
<path d="M71.2248 63.5245C70.7366 63.2804 70.2484 63.0851 69.7602 62.841C69.6138 62.7434 69.6138 62.4993 69.5162 62.304C69.7114 62.304 69.9555 62.2064 70.1508 62.304C70.6878 62.4505 71.176 62.7434 71.713 62.841C72.2988 62.9386 72.7381 62.5969 72.8846 62.1087C73.031 61.5718 72.8358 61.1324 72.2988 60.8395C71.6641 60.4978 71.0295 60.2049 70.4437 59.8631C69.6626 59.4238 69.3209 58.6915 69.5162 57.8616C69.7114 57.0805 70.3949 56.4947 71.2736 56.5436C71.8106 56.5924 72.3964 56.69 72.9334 56.8365C73.0798 56.8853 73.1287 57.1782 73.2263 57.3734C73.031 57.4223 72.8358 57.5199 72.6893 57.4711C72.2011 57.4223 71.7618 57.2758 71.2736 57.227C70.7366 57.1782 70.3461 57.4711 70.2484 58.0081C70.102 58.4963 70.2484 58.9356 70.7366 59.2285C71.2736 59.5214 71.8106 59.8143 72.3964 60.1072C73.1775 60.449 73.7145 60.9859 73.6656 61.8647C73.6168 62.7922 73.0798 63.2804 72.3476 63.5733C71.957 63.5245 71.5665 63.5245 71.2248 63.5245Z" fill="#002F61"/>
<path d="M76.253 63.5245C75.2766 63.0363 74.8861 62.2552 74.9837 61.1812C75.0325 60.3025 74.9837 59.375 74.9837 58.4963C74.9837 57.1294 75.6672 56.4947 76.9852 56.4459C77.327 56.4459 77.6687 56.3971 77.9616 56.4459C78.1569 56.4947 78.3033 56.69 78.4498 56.7876C78.3033 56.8853 78.108 57.0805 77.9616 57.1294C77.6199 57.1782 77.2293 57.1294 76.8388 57.1294C76.1065 57.1294 75.716 57.5199 75.6672 58.2522C75.6672 59.375 75.6672 60.4978 75.6672 61.6694C75.6672 62.4017 76.1065 62.7922 76.79 62.7922C77.1317 62.7922 77.4734 62.7922 77.864 62.7922C78.4498 62.7922 78.5474 62.8898 78.3521 63.4756C77.6687 63.5245 76.9852 63.5245 76.253 63.5245Z" fill="#002F61"/>
<path d="M37.3942 63.5245C37.3454 63.2804 37.199 63.0363 37.199 62.7434C37.199 60.9371 37.199 59.0821 37.199 57.1782C36.7596 57.1782 36.3691 57.227 35.9297 57.1782C35.7832 57.1782 35.6368 56.9341 35.4903 56.7876C35.6368 56.69 35.7832 56.4947 35.9297 56.4947C37.0037 56.4459 38.0777 56.4459 39.1517 56.4947C39.2981 56.4947 39.4446 56.69 39.591 56.7876C39.4446 56.9341 39.2981 57.1294 39.1028 57.1782C38.7123 57.227 38.3218 57.1782 37.8824 57.1782C37.8824 57.4223 37.8336 57.6175 37.8336 57.8128C37.8336 59.4726 37.8336 61.1324 37.8336 62.7922C37.8336 63.0363 37.736 63.2804 37.6871 63.5245C37.5895 63.5245 37.4919 63.5245 37.3942 63.5245Z" fill="#002F61"/>
<path d="M9.61705 63.5245C9.56824 63.2804 9.42178 62.9875 9.42178 62.7434C9.42178 61.1324 9.42178 59.5214 9.42178 57.9104C9.42178 57.7152 9.42178 57.4711 9.42178 57.1782C8.98242 57.1782 8.54307 57.227 8.15253 57.1782C8.00607 57.1782 7.85962 56.9341 7.71317 56.7876C7.85962 56.69 8.00607 56.4947 8.15253 56.4947C9.22651 56.4459 10.3005 56.4459 11.3745 56.4947C11.5209 56.4947 11.6674 56.69 11.8138 56.7876C11.6674 56.9341 11.5209 57.1294 11.3745 57.1782C10.9839 57.227 10.5934 57.1782 10.154 57.1782C10.154 57.4223 10.1052 57.6175 10.1052 57.8128C10.1052 59.4726 10.1052 61.1324 10.1052 62.7922C10.1052 63.0363 10.0076 63.2804 9.95878 63.5245C9.86114 63.5245 9.71469 63.5245 9.61705 63.5245Z" fill="#002F61"/>
<path d="M96.6587 63.5245C96.6099 63.3292 96.5611 63.1339 96.5611 62.8898C96.5611 60.9371 96.5611 59.0332 96.5611 57.0805C96.5611 56.8365 96.4634 56.4947 96.9028 56.4459C97.2933 56.4459 97.2445 56.7876 97.2445 57.0317C97.2445 58.6915 97.2445 60.4001 97.2445 62.0599C97.2445 62.2552 97.2445 62.4993 97.2445 62.7434C98.0256 62.7434 98.7579 62.7434 99.4413 62.7434C100.027 62.7434 100.125 62.8898 99.8318 63.4268C98.7579 63.5245 97.7327 63.5245 96.6587 63.5245Z" fill="#002F61"/>
<path d="M60.5826 63.5245C60.5337 63.3292 60.4849 63.1339 60.4361 62.8898C60.4361 60.9371 60.4361 59.0332 60.4361 57.0805C60.4361 56.8365 60.3385 56.4459 60.7778 56.4459C61.2172 56.4459 61.1195 56.8365 61.1195 57.0805C61.1195 58.7403 61.1195 60.4001 61.1195 62.0599C61.1195 62.2552 61.1195 62.4993 61.1195 62.7434C61.9006 62.7434 62.5841 62.7434 63.3163 62.7434C63.9021 62.7434 63.9998 62.8898 63.7069 63.4268C62.6817 63.5245 61.6077 63.5245 60.5826 63.5245Z" fill="#002F61"/>
<path d="M41.1044 63.5245C41.0555 63.3292 41.0067 63.1339 41.0067 62.8898C41.0067 60.9371 41.0067 59.0332 41.0067 57.0805C41.0067 56.8365 40.9091 56.4947 41.3484 56.4947C41.7878 56.4947 41.6902 56.8365 41.6902 57.0805C41.6902 59.0332 41.6902 60.9371 41.6902 62.8898C41.6902 63.0851 41.6414 63.2804 41.5925 63.5245C41.4461 63.5245 41.2996 63.5245 41.1044 63.5245Z" fill="#002F61"/>
<path d="M0 56.8365C0.19527 56.7388 0.341723 56.5924 0.536993 56.4947C0.634628 56.69 0.732263 56.8853 0.732263 57.0317C0.732263 58.9844 0.732263 60.9859 0.732263 62.9386C0.732263 63.1339 0.634628 63.2804 0.58581 63.4756C0.39054 63.4756 0.19527 63.4756 0 63.4756C0 61.2789 0 59.0821 0 56.8365Z" fill="#002F61"/>
<path d="M85.1378 37.6512C86.5047 36.4795 88.1156 36.0402 89.8731 35.9426C91.777 35.8449 93.6808 35.7961 95.4871 36.3331C97.928 37.0165 99.3437 38.6275 99.6854 41.1172C99.8807 42.4841 99.9783 43.851 99.9783 45.2179C100.027 47.6588 99.9783 50.0996 99.9783 52.5405C99.9783 52.7358 99.9783 52.9311 99.9783 53.1751C98.6602 53.1751 97.3422 53.1751 96.0241 53.1751C96.0241 52.9311 96.0241 52.687 96.0241 52.4917C95.9753 49.5138 95.9753 46.536 95.9264 43.6069C95.9264 43.2164 95.8288 42.777 95.7312 42.3865C95.4383 41.0196 94.6084 40.092 93.1927 39.9456C92.1187 39.848 90.9471 39.7991 89.8731 39.9456C88.3109 40.1409 87.481 41.1172 87.2369 42.6794C87.1393 43.6069 87.0417 44.4856 87.0417 45.4132C86.9928 47.8052 87.0417 50.1973 87.0417 52.5405C87.0417 52.7358 87.0417 52.9799 87.0417 53.224C85.7236 53.224 84.4543 53.224 83.1363 53.224C83.1363 52.9799 83.0874 52.7846 83.0874 52.5405C83.0386 49.5626 83.0386 46.5848 82.9898 43.6557C82.9898 43.2652 82.941 42.8746 82.8433 42.4841C82.5504 41.0684 81.7205 40.092 80.256 39.9456C79.182 39.848 78.0592 39.7991 76.9852 39.9456C75.4231 40.1409 74.5444 41.1172 74.3491 42.6306C74.2026 43.5581 74.1538 44.4368 74.1538 45.3643C74.105 47.7564 74.1538 50.1485 74.1538 52.4917C74.1538 52.687 74.1538 52.9311 74.1538 53.1751C72.8358 53.1751 71.5665 53.1751 70.2484 53.1751C70.2484 53.0775 70.1996 52.9311 70.1996 52.8334C70.1996 49.6115 70.1996 46.4383 70.2484 43.2164C70.2484 42.2888 70.3949 41.3613 70.639 40.4826C71.176 38.1882 72.6893 36.8213 74.9837 36.2843C77.2782 35.7473 79.6214 35.7961 81.9646 36.1866C83.2827 36.4307 83.8685 36.7236 85.1378 37.6512Z" fill="#002F61"/>
<path d="M30.6574 33.404C29.8275 33.404 29.1441 33.4529 28.4118 33.404C28.2654 33.404 28.0701 33.16 27.9724 32.9647C26.752 30.0356 26.1662 26.9601 26.1662 23.787C26.2638 12.8519 33.5865 3.4789 44.1799 0.745117C57.507 -2.67211 71.0295 6.01741 73.5192 19.5887C74.3491 24.1287 73.8609 28.5223 72.2011 32.8182C72.0059 33.2576 71.8106 33.4529 71.3224 33.404C70.7366 33.3552 70.1508 33.404 69.4673 33.404C72.0059 27.9365 72.3964 22.3713 70.3949 16.7084C68.9304 12.4613 66.343 9.0441 62.6817 6.40795C55.4079 1.18447 45.6932 0.940386 38.1753 5.87096C35.2463 7.82366 32.903 10.3134 31.1944 13.3889C29.4858 16.4644 28.5583 19.784 28.4606 23.3476C28.363 26.8137 29.1441 30.1821 30.6574 33.404Z" fill="#002F61"/>
<path d="M52.7229 40.3849C52.7229 39.2133 52.7229 38.1393 52.7229 37.0654C52.7229 36.9189 52.8694 36.7236 52.967 36.7236C56.7748 35.8937 60.5826 35.2591 64.4391 36.2355C67.3194 36.9677 68.6375 38.7252 68.6375 41.703C68.6375 43.6069 68.6375 45.5108 68.6375 47.4635C68.6375 50.6854 67.3194 52.4429 64.1951 53.1751C61.0219 53.9074 57.8 53.8586 54.6268 53.0287C51.6978 52.2476 50.7214 50.002 51.1608 47.2682C51.4049 45.9501 52.2348 45.0714 53.4064 44.4856C54.9197 43.7045 56.5795 43.4605 58.2393 43.2164C59.7038 42.9723 61.1195 42.777 62.5841 42.4841C62.9746 42.3865 63.414 42.24 63.7557 41.9959C64.5856 41.4589 64.5368 40.4338 63.6581 40.0432C63.0234 39.7503 62.2912 39.6527 61.6077 39.555C58.8251 39.311 56.0913 39.7991 53.3576 40.2873C53.2111 40.2873 52.967 40.3361 52.7229 40.3849ZM64.7809 45.1203C63.2675 45.9013 61.7054 46.1454 60.1432 46.3895C58.8739 46.6336 57.5559 46.8289 56.2866 47.1218C55.7496 47.2194 55.4079 47.5611 55.4079 48.1958C55.4079 48.8304 55.7008 49.2697 56.2866 49.4162C56.8724 49.6115 57.4582 49.7091 58.044 49.8067C59.6062 49.9532 61.2172 49.9532 62.7305 49.5138C63.9021 49.1721 64.6344 48.4887 64.732 47.2194C64.8297 46.5848 64.7809 45.9013 64.7809 45.1203Z" fill="#002F61"/>
<path d="M20.8451 40.3849C20.8451 39.2133 20.8451 38.1393 20.8451 37.0654C20.8451 36.9677 20.9915 36.7724 21.0892 36.7236C24.8969 35.8937 28.7535 35.2591 32.6101 36.2355C35.4415 36.9677 36.7596 38.6763 36.8084 41.6542C36.8084 43.6069 36.8084 45.5108 36.8084 47.4635C36.8084 50.6854 35.4903 52.3941 32.366 53.1263C29.1929 53.8586 26.0197 53.8098 22.8466 52.9799C19.9176 52.1988 18.8924 50.0508 19.3317 47.2682C19.527 45.9501 20.4057 45.0226 21.5773 44.4368C23.0907 43.6557 24.7505 43.4116 26.4103 43.1675C27.8748 42.9235 29.2905 42.7282 30.755 42.4353C31.1456 42.3377 31.5849 42.1912 31.9267 41.9471C32.7566 41.4101 32.7077 40.3849 31.829 39.9944C31.1944 39.7015 30.511 39.6039 29.7787 39.5062C26.9961 39.2621 24.2623 39.7503 21.5285 40.2385C21.3333 40.2873 21.138 40.3361 20.8451 40.3849ZM32.903 45.1203C31.3897 45.9013 29.8275 46.0966 28.2654 46.3895C26.9961 46.6336 25.678 46.8289 24.4088 47.1218C23.8718 47.2194 23.53 47.6099 23.53 48.1958C23.53 48.8304 23.823 49.2697 24.4088 49.4162C24.9458 49.6115 25.5316 49.7091 26.1174 49.7579C27.7284 49.9044 29.2905 49.9044 30.9015 49.465C32.0243 49.1721 32.8054 48.4398 32.903 47.2194C32.9518 46.6336 32.903 45.9013 32.903 45.1203Z" fill="#002F61"/>
<path d="M46.1814 31.3537C44.131 30.1333 41.8854 29.5963 39.6887 29.0105C39.2981 28.9128 39.1517 28.7664 39.1028 28.3758C38.4194 23.8846 37.6871 19.4422 36.9549 14.9998C36.9549 14.8534 36.9549 14.7557 36.9549 14.5605C38.3218 14.1699 39.6887 14.2676 41.0067 14.7557C43.6917 15.8297 45.5468 17.5872 45.742 20.6627C45.8397 22.0784 45.9373 23.4453 45.9861 24.861C46.0837 26.9113 46.1326 28.9128 46.1814 30.9632C46.1814 31.012 46.1814 31.1584 46.1814 31.3537Z" fill="#002F61"/>
<path d="M53.9434 31.3049C53.9434 30.1333 53.8946 29.0105 53.9434 27.8877C54.041 25.4468 54.1875 23.0059 54.3339 20.565C54.5292 17.5872 56.2866 15.8297 58.8739 14.7557C60.2408 14.2188 61.6565 14.1211 63.1699 14.5117C62.9746 15.5856 62.8282 16.6596 62.6817 17.7336C62.0959 21.2973 61.5101 24.861 60.9731 28.4247C60.9243 28.7664 60.7778 28.9128 60.4361 29.0105C58.7275 29.5475 57.0189 30.0844 55.3103 30.6214C54.8221 30.7679 54.3827 31.0608 53.9434 31.3049Z" fill="#002F61"/>
<path d="M50.6238 53.0775C47.89 53.2728 45.205 53.5657 42.5689 52.8822C39.7863 52.1012 38.4194 50.2949 38.4194 47.4147C38.4194 43.6557 38.4194 39.8968 38.4194 36.089C39.6887 36.089 40.9579 36.089 42.3248 36.089C42.3248 36.2843 42.3248 36.5284 42.3248 36.7236C42.3248 40.092 42.3248 43.4605 42.3248 46.78C42.3248 48.4887 43.1059 49.5138 44.8145 49.6603C46.3767 49.8067 47.9876 49.7091 49.5498 49.6603C50.038 49.6603 50.1356 49.7579 50.1844 50.1973C50.2821 51.1248 50.4773 52.0523 50.6238 53.0775Z" fill="#002F61"/>
<path d="M31.6338 15.5368C32.5125 15.9274 33.2936 16.3667 34.1235 16.562C35.0998 16.7573 35.3927 17.3431 35.5392 18.2218C36.2714 21.8343 37.0525 25.4468 37.7848 29.1081C37.8824 29.5963 38.0289 29.7915 38.5658 29.8892C41.1532 30.3285 43.5941 31.2073 45.8885 32.3789C46.0837 32.4765 46.2302 32.6718 46.3767 32.7694C46.3278 32.8182 46.3278 32.9159 46.279 32.9647C45.3027 32.7694 44.3263 32.5741 43.3988 32.4277C40.8115 31.9395 38.2729 31.4025 35.6856 30.9632C35.3927 30.9144 35.1974 30.8167 35.1486 30.475C33.977 25.6421 32.7566 20.8091 31.5849 15.9274C31.6338 15.7809 31.6338 15.7321 31.6338 15.5368Z" fill="#002F61"/>
<path d="M53.6017 32.7694C53.7481 32.623 53.8946 32.4277 54.0898 32.3301C56.4331 31.1096 58.8739 30.2797 61.4613 29.8404C61.9494 29.7427 62.0959 29.4986 62.1447 29.1081C62.9746 25.2515 63.8045 21.3461 64.5856 17.4895C64.6832 17.0502 64.8297 16.8549 65.3179 16.7573C65.9525 16.6108 66.5383 16.3179 67.1241 16.0738C67.5146 15.9274 67.9052 15.7321 68.3934 15.5368C68.3445 15.9274 68.2957 16.1715 68.1981 16.4155C67.0753 21.0044 65.9525 25.5932 64.8297 30.2309C64.732 30.6703 64.5368 30.8655 64.0974 30.9632C60.6802 31.5978 57.263 32.2812 53.8946 32.9159C53.8457 32.9159 53.7481 32.9159 53.6993 32.9647C53.6993 32.8671 53.6505 32.8182 53.6017 32.7694Z" fill="#002F61"/>
<path d="M49.2081 33.3064C49.0128 33.3552 48.964 33.3552 48.964 33.3552C47.4018 33.1599 47.4506 33.1599 47.4018 31.5978C47.3042 28.2782 47.2554 25.0074 47.1089 21.6878C47.0601 20.5162 46.816 19.3446 46.5231 18.173C46.1326 16.5132 45.1074 15.2927 43.5941 14.5116C43.1547 14.2676 42.7153 14.0235 42.2272 13.7794C42.276 13.6817 42.276 13.5353 42.276 13.4377C42.6665 12.1196 42.6665 12.0708 43.9846 12.5589C46.7672 13.5841 48.1829 15.6833 48.6223 18.5635C49.1593 22.3224 49.2081 26.0814 49.2081 29.8403C49.2081 31.012 49.2081 32.1348 49.2081 33.3064Z" fill="#FFB300"/>
<path d="M50.9655 33.3552C50.9167 33.1599 50.9167 33.0623 50.9167 32.9647C50.8191 28.1806 50.7214 23.3476 51.4537 18.6123C51.9419 15.2927 53.7969 13.1448 56.726 12.4125C56.9701 12.3637 57.1653 12.3149 57.4582 12.266C57.6047 12.803 57.7511 13.2912 57.8976 13.7794C57.6535 13.9258 57.4094 14.0723 57.2142 14.1699C54.7245 15.2439 53.6017 17.1966 53.2111 19.7839C52.6741 23.787 52.7229 27.8388 52.6741 31.8907C52.6741 32.1836 52.7229 32.4765 52.6741 32.7694C52.6253 32.9159 52.4789 33.1599 52.2836 33.2088C51.893 33.2576 51.4537 33.3064 50.9655 33.3552Z" fill="#FFB300"/>
<path d="M51.893 11.3385C51.893 12.5101 50.9167 13.4377 49.7451 13.3888C48.5735 13.3888 47.6459 12.4125 47.6947 11.2409C47.6947 10.0692 48.6711 9.14171 49.8427 9.19053C51.0143 9.19053 51.9419 10.1669 51.893 11.3385Z" fill="#FFB300"/>
</svg>
