<svg width="116" height="19" viewBox="0 0 116 19" fill="none" xmlns="http://www.w3.org/2000/svg">
<path fill-rule="evenodd" clip-rule="evenodd" d="M19.057 15.8387H12.1546C11.8776 15.8387 11.6256 15.826 11.4115 15.7879C11.1848 15.7497 10.9959 15.6988 10.8573 15.6226C10.681 15.5336 10.555 15.4065 10.4668 15.2158C10.3913 15.0633 10.3409 14.8599 10.3409 14.6311C10.3409 14.4786 10.3661 14.326 10.4165 14.1735C10.4668 14.0336 10.5424 13.8938 10.6306 13.754L10.6432 13.7413C10.7062 13.665 10.7943 13.5633 10.9203 13.4616C11.0337 13.3599 11.1722 13.2328 11.3611 13.0803L16.1349 9.19052C16.437 8.93632 16.7142 8.69476 16.941 8.44056C17.1677 8.199 17.344 7.94479 17.4825 7.70329C17.6211 7.46173 17.7218 7.22022 17.7849 6.95327C17.8477 6.68632 17.8855 6.40668 17.8855 6.10159C17.8855 5.65672 17.8101 5.26265 17.6714 4.90672C17.5329 4.55079 17.3188 4.23301 17.0416 3.96606C16.7646 3.69912 16.4496 3.48302 16.0844 3.3559C15.7318 3.21608 15.3161 3.13981 14.8753 3.13981C14.4218 3.13981 14.0062 3.21608 13.6409 3.3559C13.2756 3.49573 12.9481 3.71183 12.6584 3.99148C12.3688 4.27113 12.1672 4.58894 12.0161 4.94485C11.8776 5.30078 11.8019 5.69485 11.8019 6.12704C11.8019 6.59736 11.8776 7.00415 12.0161 7.37276C12.1168 7.61427 12.2428 7.84308 12.394 8.04645L11.4367 8.91088C11.1092 8.55496 10.8573 8.14817 10.681 7.71598C10.5046 7.27105 10.4165 6.78803 10.4165 6.25414C10.4165 5.61858 10.5172 5.04655 10.7314 4.52537C10.9455 4.00419 11.2603 3.52115 11.676 3.10167C12.0917 2.6822 12.5703 2.37711 13.1119 2.17372C13.6409 1.97034 14.2329 1.86865 14.8753 1.86865C15.4924 1.86865 16.0718 1.97034 16.5883 2.17372C17.1047 2.37711 17.5833 2.66948 17.999 3.07625C18.4146 3.48302 18.7295 3.92792 18.9436 4.43638C19.1577 4.93214 19.2585 5.49143 19.2585 6.10159C19.2585 6.52109 19.2081 6.94058 19.0947 7.32193C18.9814 7.70329 18.8303 8.08464 18.6036 8.42781C18.4146 8.73289 18.1627 9.05072 17.8477 9.39389C17.5455 9.72442 17.1677 10.0676 16.7394 10.4109L12.0035 14.3006C11.9153 14.3895 11.8776 14.4531 11.8776 14.4786C11.8776 14.4913 11.9153 14.5039 11.9909 14.5039H19.057H19.334V14.7836V15.5209V15.8006H19.057V15.8387ZM8.72868 15.8387H1.81374C1.53665 15.8387 1.28474 15.826 1.07062 15.7879C0.843895 15.7497 0.654968 15.6988 0.516416 15.6226C0.340078 15.5336 0.214123 15.4065 0.125955 15.2158C0.050382 15.0633 0 14.8599 0 14.6311C0 14.4786 0.0251918 14.326 0.0755735 14.1735C0.125955 14.0336 0.201529 13.8938 0.289699 13.754L0.302291 13.7413C0.365268 13.665 0.453438 13.5633 0.579394 13.4616C0.692752 13.3599 0.831303 13.2328 1.02024 13.0803L5.79394 9.19052C6.09622 8.93632 6.3733 8.69476 6.60003 8.44056C6.82676 8.199 7.00308 7.94479 7.14165 7.70329C7.28016 7.46173 7.38092 7.22022 7.44393 6.95327C7.50689 6.68632 7.54469 6.40668 7.54469 6.10159C7.54469 5.65672 7.46913 5.26265 7.33057 4.90672C7.192 4.55079 6.97787 4.23301 6.70079 3.96606C6.42371 3.69912 6.10882 3.48302 5.74353 3.3559C5.39089 3.21608 4.97521 3.13981 4.53437 3.13981C4.08093 3.13981 3.66529 3.21608 3.30001 3.3559C2.93475 3.49573 2.60726 3.71183 2.31757 3.99148C2.02787 4.27113 1.82635 4.58894 1.6752 4.94485C1.53665 5.30078 1.46108 5.69485 1.46108 6.12704C1.46108 6.59736 1.53665 7.00415 1.6752 7.37276C1.77596 7.61427 1.90191 7.84308 2.05307 8.04645L1.09581 8.91088C0.768326 8.56766 0.516416 8.16091 0.34008 7.71598C0.163742 7.27105 0.0755735 6.78803 0.0755735 6.25414C0.0755735 5.61858 0.176338 5.04655 0.390461 4.52537C0.604581 3.99148 0.919469 3.52115 1.33512 3.10167C1.75076 2.6822 2.22939 2.37711 2.77101 2.17372C3.30001 1.97034 3.89201 1.86865 4.53437 1.86865C5.15154 1.86865 5.73093 1.97034 6.24734 2.17372C6.77635 2.37711 7.24241 2.66948 7.65806 3.07625C8.07371 3.48302 8.38859 3.92792 8.60272 4.43638C8.81684 4.93214 8.91761 5.49143 8.91761 6.10159C8.91761 6.52109 8.8672 6.94058 8.75389 7.32193C8.64047 7.70329 8.48936 8.08464 8.26263 8.42781C8.07371 8.73289 7.82177 9.05072 7.50689 9.39389C7.2046 9.72442 6.82676 10.0676 6.39851 10.4109L1.66261 14.3006C1.57444 14.3895 1.53665 14.4531 1.53665 14.4786C1.53665 14.4913 1.57444 14.5039 1.65 14.5039H8.71608H8.99316V14.7836V15.5209V15.8006H8.71608C8.72868 15.8133 8.72868 15.8387 8.72868 15.8387ZM24.7249 3.59743L24.6745 3.61013C24.0321 3.9025 23.4401 4.34741 22.886 4.91943C22.3318 5.50417 21.9162 6.13973 21.6516 6.80073C21.3871 7.47447 21.236 8.1863 21.236 8.96171C21.236 9.73711 21.3745 10.449 21.6516 11.1227C21.9162 11.7964 22.3444 12.432 22.886 13.0167C23.4401 13.6014 24.0321 14.0336 24.6745 14.326C25.3169 14.6184 26.0097 14.7582 26.7528 14.7582C27.496 14.7582 28.1886 14.6184 28.831 14.326C29.4734 14.0336 30.0654 13.6014 30.6197 13.0167C31.1738 12.432 31.5769 11.8091 31.8539 11.1354C32.1185 10.4617 32.2695 9.73711 32.2695 8.97445C32.2695 8.199 32.1311 7.47447 31.8539 6.81348C31.5895 6.13973 31.1738 5.50417 30.6197 4.93215C30.0654 4.33469 29.4356 3.8898 28.768 3.59743L29.6119 2.37711C30.3677 2.72032 31.0604 3.22878 31.6775 3.87708C32.3326 4.57622 32.8238 5.33894 33.1513 6.19061C33.4789 7.04224 33.6425 7.97023 33.6425 8.96171C33.6425 9.95323 33.4789 10.8812 33.1513 11.7329C32.8238 12.5845 32.3326 13.3472 31.6649 14.0464C30.9975 14.7455 30.2669 15.2667 29.4482 15.6099C28.6295 15.9658 27.7353 16.1438 26.7654 16.1438C25.783 16.1438 24.8886 15.9658 24.0699 15.6099C23.2512 15.254 22.5082 14.7328 21.8405 14.0464C21.1856 13.3472 20.6944 12.5718 20.3543 11.7329C20.0268 10.8812 19.8631 9.96592 19.8631 8.96171C19.8631 7.95749 20.0268 7.04224 20.3543 6.19061C20.6818 5.33894 21.173 4.57622 21.8405 3.87708C22.4577 3.22878 23.1505 2.72032 23.9062 2.37711L24.7249 3.59743ZM42.1822 6.45751H43.1018H43.5174L43.3663 6.83886L40.1292 15.1777C40.0915 15.3175 40.0284 15.4446 39.9402 15.5464C39.8647 15.6607 39.7639 15.7624 39.6506 15.8387C39.5372 15.915 39.4239 15.9658 39.2979 16.0039C39.1719 16.0421 39.0334 16.0548 38.8948 16.0548C38.6304 16.0548 38.3658 15.9785 38.1517 15.8387C38.0384 15.7624 37.9376 15.6607 37.8493 15.5464C37.7739 15.4446 37.7109 15.3175 37.6604 15.1777L34.2976 6.85161L34.1463 6.45751H34.5619H35.4814H35.6704L35.746 6.64819L38.7941 14.5675C38.8193 14.6438 38.8445 14.6946 38.8822 14.7201C38.8948 14.7201 38.9074 14.7074 38.9074 14.7074C38.9326 14.6819 38.9578 14.6311 38.983 14.5548L41.8674 6.64819L41.943 6.45751H42.1822ZM48.1777 7.47447C47.6739 7.47447 47.2204 7.57613 46.8048 7.76681C46.3891 7.95749 46.0239 8.26257 45.6964 8.64393C45.3941 8.99984 45.1674 9.3812 45.0289 9.78794C44.8777 10.1947 44.8148 10.6269 44.8148 11.0845C44.8148 11.504 44.8903 11.9108 45.054 12.3049C45.2178 12.7116 45.4696 13.1057 45.7972 13.487C46.49 14.3006 47.2835 14.7074 48.1903 14.7074C48.6563 14.7074 49.0846 14.6184 49.4877 14.4404C49.8781 14.2497 50.2433 13.9701 50.5835 13.6014C51.251 12.8515 51.5785 12.0125 51.5785 11.0972C51.5785 10.6269 51.5029 10.182 51.3392 9.77525C51.1881 9.35575 50.9361 8.97445 50.6087 8.60579C50.2812 8.22444 49.9033 7.94479 49.5003 7.75412C49.0846 7.57613 48.6563 7.47447 48.1777 7.47447ZM52.8633 11.0972C52.8633 10.4362 52.7626 9.82613 52.5483 9.2541C52.3342 8.68206 52.032 8.16091 51.6163 7.69054C51.1629 7.18208 50.659 6.78803 50.0796 6.53378C49.5003 6.27958 48.8705 6.15248 48.1651 6.15248C46.7922 6.15248 45.6712 6.64819 44.7896 7.62702C43.9205 8.5931 43.4796 9.76255 43.4796 11.11C43.4796 11.771 43.5804 12.3812 43.7945 12.9531C44.0087 13.5252 44.3235 14.0591 44.7517 14.5294C45.2052 15.0378 45.709 15.4319 46.2885 15.6861C46.8679 15.9404 47.4976 16.0675 48.2029 16.0675C48.8957 16.0675 49.5507 15.9404 50.13 15.6607C50.7094 15.3938 51.2259 14.987 51.6792 14.4659C52.4603 13.4998 52.8633 12.3812 52.8633 11.0972ZM53.9843 15.559V2.31355V2.0339H54.2611H55.0172H55.294V2.31355V15.559V15.8387H55.0172H54.2611H53.9843V15.559ZM56.9571 2.49152H57.7126H57.9895V2.77117V6.44481H61.0503H61.3271V6.72446V7.46173V7.74142H61.0503H57.9895V13.0422C57.9895 13.2837 58.0274 13.4998 58.1281 13.6904C58.2288 13.8811 58.3675 14.0591 58.5689 14.2243C58.783 14.3768 58.9971 14.5039 59.2365 14.5802C59.4758 14.6565 59.7152 14.7074 59.992 14.7074C60.3195 14.7074 60.6601 14.6311 60.9749 14.4913C61.1383 14.415 61.3023 14.326 61.441 14.2243C61.5918 14.1226 61.7305 14.0082 61.8565 13.8684L62.0705 13.6523L62.272 13.8811L62.8514 14.5421L63.0529 14.7709L62.8135 14.9616C62.5994 15.1269 62.3853 15.2793 62.1586 15.4065C61.9319 15.5336 61.6925 15.6607 61.4658 15.7624C61.2264 15.8641 60.9749 15.9404 60.7355 15.9912C60.4835 16.0421 60.2441 16.0675 59.992 16.0675C59.0851 16.0675 58.3042 15.8006 57.662 15.2793C57.3346 15.0125 57.0825 14.6946 56.9191 14.326C56.7551 13.9701 56.6797 13.5633 56.6797 13.1057V2.79659V2.51695H56.9571V2.49152Z" fill="#1952B9"/>
<path fill-rule="evenodd" clip-rule="evenodd" d="M25.9845 0.762695C25.9845 0.343212 26.3245 0 26.7402 0C27.1558 0 27.496 0.343212 27.496 0.762695V5.75836C27.496 6.17785 27.1558 6.52107 26.7402 6.52107C26.3245 6.52107 25.9845 6.17785 25.9845 5.75836V0.762695Z" fill="#44AAD3"/>
<path d="M113.288 0H66.5366C65.0386 0 63.8237 1.24114 63.8237 2.77216V15.8176C63.8237 17.3486 65.0386 18.5897 66.5366 18.5897H113.288C114.786 18.5897 116 17.3486 116 15.8176V2.77216C116 1.24114 114.786 0 113.288 0Z" fill="#44AAD3"/>
<path fill-rule="evenodd" clip-rule="evenodd" d="M82.4913 12.699V6.6229V6.34326H82.7686H83.5242H83.8015V6.6229V12.394C83.8015 12.7626 83.8643 13.0931 83.9903 13.3728C84.1163 13.6524 84.3177 13.9067 84.5698 14.1227C84.7965 14.3134 85.0612 14.4533 85.3507 14.5549C85.6407 14.6566 85.9554 14.6948 86.3077 14.6948C86.6604 14.6948 86.9878 14.644 87.2905 14.5295C87.5926 14.4278 87.87 14.2626 88.1215 14.0338C88.3609 13.8177 88.5628 13.5762 88.6756 13.2965C88.789 13.0169 88.8649 12.699 88.8649 12.3431V6.6229V6.34326H89.1418H89.8979H90.1747V6.6229V12.5466C90.1747 13.055 90.074 13.5253 89.8726 13.9575C89.6711 14.377 89.3685 14.7711 88.953 15.1016C88.5749 15.4066 88.1721 15.6354 87.7187 15.8007C87.2779 15.9533 86.7991 16.0295 86.2955 16.0295C85.8041 16.0295 85.3254 15.9533 84.8846 15.8134C84.4438 15.6736 84.0409 15.4575 83.6755 15.1651C83.26 14.8473 82.9574 14.4787 82.756 14.0719C82.592 13.6524 82.4913 13.1948 82.4913 12.699Z" fill="white"/>
<path fill-rule="evenodd" clip-rule="evenodd" d="M75.3247 2.37744H76.0802H76.3576V2.65711V6.33076H79.4184H79.6952V6.6104V7.34767V7.62731H79.4184H76.3576V12.928C76.3576 13.1696 76.395 13.3857 76.4963 13.5763C76.597 13.767 76.7356 13.945 76.9371 14.1102C77.1511 14.2628 77.3652 14.3899 77.6046 14.4662C77.844 14.5424 78.0828 14.5933 78.3602 14.5933C78.6876 14.5933 79.0277 14.517 79.3425 14.3772C79.5065 14.3009 79.6699 14.212 79.8086 14.1102C79.9599 14.0085 80.0981 13.8941 80.2246 13.7543L80.4387 13.5382L80.6401 13.767L81.2196 14.428L81.421 14.6568L81.1816 14.8475C80.9675 15.0128 80.7535 15.1653 80.5267 15.2924C80.3 15.4195 80.0606 15.5466 79.8339 15.6484C79.5945 15.75 79.3425 15.8263 79.1031 15.8772C78.8516 15.928 78.6122 15.9534 78.3602 15.9534C77.4533 15.9534 76.6724 15.6865 76.0302 15.1653C75.7027 14.8983 75.4507 14.5806 75.2867 14.212C75.1233 13.856 75.0479 13.4492 75.0479 12.9916V2.68253V2.40287H75.3247V2.37744Z" fill="white"/>
<path fill-rule="evenodd" clip-rule="evenodd" d="M113.439 9.25396C113.224 8.68193 112.922 8.16078 112.506 7.69046C112.28 7.4362 112.04 7.20739 111.789 7.01671C111.537 6.82604 111.259 6.6608 110.97 6.5337C110.39 6.27944 109.761 6.15234 109.055 6.15234C107.682 6.15234 106.561 6.64811 105.68 7.62688C104.811 8.59296 104.37 9.76242 104.37 11.1099C104.37 11.7709 104.471 12.381 104.685 12.9531C104.899 13.5251 105.214 14.0589 105.642 14.5293C105.869 14.7835 106.108 15.0123 106.36 15.203C106.612 15.3937 106.889 15.5589 107.179 15.6861C107.758 15.9403 108.388 16.0674 109.093 16.0674C109.786 16.0674 110.441 15.9403 111.02 15.6606C111.599 15.3937 112.116 14.9869 112.57 14.4657C112.972 13.9827 113.262 13.4615 113.464 12.9022C113.665 12.3429 113.766 11.7455 113.766 11.0972C113.753 10.4362 113.64 9.82599 113.439 9.25396ZM111.449 13.6013C111.121 13.97 110.756 14.2496 110.353 14.4403C109.962 14.631 109.521 14.7072 109.055 14.7072C108.148 14.7072 107.355 14.3005 106.662 13.4869C106.499 13.2963 106.347 13.1056 106.234 12.9022C106.108 12.7115 106.007 12.5081 105.919 12.3048C105.756 11.9107 105.68 11.5039 105.68 11.0845C105.68 10.6268 105.756 10.1947 105.894 9.78786C106.045 9.38106 106.272 8.99976 106.561 8.64379C106.889 8.26249 107.254 7.95741 107.67 7.76673C108.086 7.57605 108.539 7.47434 109.043 7.47434C109.521 7.47434 109.95 7.57605 110.365 7.74129C110.567 7.83025 110.756 7.94466 110.945 8.0972C111.134 8.23705 111.31 8.40229 111.474 8.59296C111.801 8.96163 112.04 9.35567 112.204 9.76242C112.356 10.1692 112.444 10.6141 112.444 11.0845C112.444 12.0124 112.116 12.8513 111.449 13.6013Z" fill="white"/>
<path fill-rule="evenodd" clip-rule="evenodd" d="M101.951 15.635V6.53345V6.33008H102.229H102.997H103.274V6.53345V15.635V15.8384H102.997H102.229H101.951V15.635Z" fill="white"/>
<path d="M73.4354 11.8348C73.3853 11.7839 73.2466 11.6695 73.0573 11.517C72.9439 11.428 72.7931 11.339 72.5912 11.2627C71.118 10.6526 69.4049 10.6272 68.0192 9.83902C67.9565 9.80088 67.8051 9.75005 67.7171 9.59751C67.5283 9.22885 67.9185 8.64412 68.2085 8.35179C68.5481 7.99587 68.9261 7.86872 69.1149 7.8052C69.4929 7.67804 69.8204 7.66535 70.0218 7.66535C70.3492 7.66535 70.576 7.70348 70.6392 7.71618C70.9166 7.76701 71.118 7.85602 71.1807 7.88147C71.2814 7.9323 71.4829 8.02126 71.6975 8.1738C71.823 8.26277 71.9996 8.40262 72.1884 8.63143C72.365 8.86024 72.4784 9.08906 72.5411 9.29243C73.0072 9.29243 73.4733 9.29243 73.9268 9.29243C73.9015 9.01279 73.8255 8.50433 73.4981 7.98313C73.1206 7.37296 72.6039 7.06787 72.2764 6.8772C71.6469 6.52133 71.08 6.43232 70.8027 6.38149C70.7653 6.38149 70.0471 6.26708 69.3042 6.40687C68.9894 6.45776 68.7247 6.54672 68.6994 6.55942C68.5106 6.62299 68.3593 6.68657 68.2586 6.7374C67.8679 6.91538 67.6037 7.11876 67.4904 7.20772C67.3016 7.34757 66.9742 7.61452 66.6968 8.0594C66.382 8.55516 66.1933 9.16533 66.3314 9.73736C66.5455 10.4873 67.2257 10.9449 67.9185 11.2119C69.1782 11.7077 70.6013 11.6695 71.823 12.2796C71.9363 12.3305 72.0497 12.394 72.1509 12.4703C72.327 12.572 72.4905 12.7119 72.5538 12.9026C72.7425 13.4364 72.1256 13.9957 71.7349 14.2627C71.2814 14.5678 70.7146 14.733 70.1605 14.7457C69.6063 14.7584 69.0521 14.6313 68.5987 14.3517C68.1326 14.0593 67.7798 13.6017 67.6538 13.0805C67.2009 13.0805 66.7596 13.0805 66.3061 13.0805C66.3188 13.7288 66.6209 14.3643 67.0743 14.8347C67.5283 15.305 68.1326 15.6355 68.7748 15.8262C69.6696 16.0931 70.6519 16.1058 71.5335 15.8007C72.5664 15.4576 73.6241 14.6059 73.8762 13.5254C73.9141 13.3729 74.0396 12.7627 73.7375 12.2415C73.6368 12.0508 73.486 11.8856 73.4354 11.8348Z" fill="white"/>
<path fill-rule="evenodd" clip-rule="evenodd" d="M100.68 11.0974V2.50439H99.3572V7.61448C99.3572 7.61448 99.3572 7.60173 99.3445 7.60173C99.1426 7.38561 98.9285 7.18224 98.7018 7.01701C98.4503 6.82633 98.1729 6.66109 97.8835 6.53399C97.8202 6.50855 97.7574 6.48311 97.6942 6.45772C97.1653 6.2543 96.5985 6.15264 95.9811 6.15264C94.6086 6.15264 93.4876 6.6484 92.606 7.62718C91.7365 8.59326 91.2957 9.76271 91.2957 11.1101C91.2957 11.7711 91.3964 12.3813 91.6105 12.9533C91.8246 13.5253 92.1399 14.0592 92.568 14.5295C92.7947 14.7838 93.0341 15.0126 93.2856 15.2033C93.5377 15.394 93.815 15.5592 94.1045 15.6863C94.684 15.9406 95.3135 16.0677 96.019 16.0677C96.2711 16.0677 96.5231 16.055 96.762 16.0168C97.178 15.9533 97.5687 15.8388 97.9462 15.6609C98.5257 15.394 99.0419 14.9872 99.4953 14.466C99.7221 14.1991 99.9113 13.9067 100.075 13.6143H100.087C100.213 13.3855 100.314 13.144 100.402 12.9025C100.566 12.4321 100.667 11.9364 100.692 11.4152L100.68 11.0974ZM98.3744 13.6016C98.0469 13.9703 97.6815 14.2499 97.2787 14.4406C97.1026 14.5295 96.9133 14.5931 96.7245 14.6313C96.4851 14.6821 96.2458 14.7075 95.9937 14.7075C95.5155 14.7075 95.0747 14.5931 94.6587 14.377C94.2811 14.1736 93.9284 13.8812 93.6009 13.4999C93.437 13.3093 93.2856 13.1186 93.1728 12.9152C93.0468 12.7245 92.9461 12.5211 92.8575 12.3177C92.694 11.9237 92.6186 11.5169 92.6186 11.0974C92.6186 10.6398 92.694 10.2076 92.8322 9.80085C92.9835 9.3941 93.2102 9.01275 93.5002 8.65678C93.8277 8.27543 94.1925 7.9704 94.6086 7.77972C95.0241 7.58904 95.4775 7.48733 95.9811 7.48733H96.019C96.4851 7.48733 96.9006 7.58904 97.304 7.75428C97.5054 7.84324 97.6942 7.95765 97.8835 8.11019C98.0722 8.25004 98.2483 8.41527 98.4123 8.60595C98.7397 8.97461 98.9791 9.36866 99.1426 9.77541C99.256 10.0678 99.3319 10.3983 99.3572 10.7288C99.3572 10.7669 99.3572 10.8051 99.3693 10.8305V11.3517C99.3693 11.3898 99.3693 11.4152 99.3572 11.4534C99.2813 12.2288 98.9538 12.9406 98.3744 13.6016Z" fill="white"/>
</svg>
