<svg width="22" height="9" viewBox="0 0 22 9" fill="none" xmlns="http://www.w3.org/2000/svg">
<path d="M5.62891 5.95898H2.35254L1.6167 8H0.553223L3.53955 0.179688H4.44189L7.43359 8H6.37549L5.62891 5.95898ZM2.66406 5.11035H5.32275L3.99072 1.45264L2.66406 5.11035ZM8.48633 8V0.179688H11.043C11.8916 0.179688 12.529 0.355143 12.9551 0.706055C13.3848 1.05697 13.5996 1.57617 13.5996 2.26367C13.5996 2.62891 13.4958 2.95296 13.2881 3.23584C13.0804 3.51514 12.7975 3.73177 12.4395 3.88574C12.862 4.00391 13.195 4.22949 13.4385 4.5625C13.6855 4.89193 13.8091 5.28581 13.8091 5.74414C13.8091 6.44596 13.5817 6.9974 13.127 7.39844C12.6722 7.79948 12.0295 8 11.1987 8H8.48633ZM9.51758 4.34229V7.15674H11.2202C11.7 7.15674 12.0778 7.0332 12.3535 6.78613C12.6328 6.53548 12.7725 6.19173 12.7725 5.75488C12.7725 4.81315 12.2604 4.34229 11.2363 4.34229H9.51758ZM9.51758 3.51514H11.0752C11.5264 3.51514 11.8862 3.40234 12.1548 3.17676C12.4269 2.95117 12.563 2.64502 12.563 2.2583C12.563 1.82861 12.4377 1.51709 12.187 1.32373C11.9364 1.12679 11.555 1.02832 11.043 1.02832H9.51758V3.51514ZM21.0923 5.51855C20.9956 6.3457 20.6895 6.98486 20.1738 7.43604C19.6618 7.88363 18.9797 8.10742 18.1274 8.10742C17.2036 8.10742 16.4624 7.7762 15.9038 7.11377C15.3488 6.45133 15.0713 5.5651 15.0713 4.45508V3.70312C15.0713 2.97624 15.2002 2.33708 15.458 1.78564C15.7194 1.23421 16.0882 0.811686 16.5645 0.518066C17.0407 0.220866 17.5921 0.0722656 18.2188 0.0722656C19.0495 0.0722656 19.7155 0.305013 20.2168 0.770508C20.7181 1.23242 21.0099 1.87337 21.0923 2.69336H20.0557C19.9661 2.07031 19.771 1.61914 19.4702 1.33984C19.173 1.06055 18.7559 0.920898 18.2188 0.920898C17.5599 0.920898 17.0425 1.16439 16.6665 1.65137C16.2941 2.13835 16.1079 2.83122 16.1079 3.72998V4.4873C16.1079 5.33594 16.2852 6.0109 16.6396 6.51221C16.9941 7.01351 17.4901 7.26416 18.1274 7.26416C18.7004 7.26416 19.139 7.13525 19.4434 6.87744C19.7513 6.61605 19.9554 6.16309 20.0557 5.51855H21.0923Z" fill="#002F61"/>
</svg>
