<svg width="21" height="18" viewBox="0 0 21 18" fill="none" xmlns="http://www.w3.org/2000/svg">
<path d="M0.0845921 8.51298C1.0574 8.51298 1.98792 8.51298 2.93958 8.51298C3.57402 8.51298 4.22961 8.51297 4.86405 8.49349C5.01208 8.49349 5.16012 8.37661 5.26586 8.27921C6.83082 7.0909 8.37462 5.8831 9.91843 4.67531C10.3837 4.32466 10.5317 4.32466 10.9758 4.67531C12.5408 5.8831 14.1269 7.0909 15.6918 8.31817C15.9879 8.55194 16.3263 8.49349 16.6435 8.49349C18.0604 8.51297 19.4985 8.49349 20.9789 8.49349C20.9789 8.61038 21 8.72726 21 8.84414C21 11.4935 21 14.1623 21 16.8117C21 17.6299 20.6193 18 19.7311 18C17.426 18 15.1208 18 12.8369 18C12.71 18 12.6042 17.9805 12.435 17.9805C12.435 17.2987 12.4562 16.6364 12.435 15.974C12.4139 14.7662 11.1873 13.9286 9.96072 14.2597C9.1571 14.474 8.5861 15.1558 8.56495 15.9351C8.54381 16.5 8.56495 17.0649 8.56495 17.6104C8.56495 17.7273 8.54381 17.8247 8.54381 17.961C8.39577 17.961 8.26888 17.9805 8.16314 17.9805C5.87915 17.9805 3.59517 17.9805 1.29003 17.9805C0.380665 17.9805 0 17.6299 0 16.7922C0 14.513 0 12.2338 0 9.95454C0 9.54544 0.0422961 9.05843 0.0845921 8.51298ZM10.5106 10.1688C11.4199 10.1688 11.9275 9.46752 11.9486 8.90259C11.9698 8.14285 11.2931 7.49999 10.4683 7.51947C9.66465 7.53895 9.07251 8.14284 9.05136 8.88311C9.05136 9.5844 9.81269 10.2078 10.5106 10.1688ZM3.08761 12.3506C2.47432 12.3506 1.90332 12.3506 1.33233 12.3506C1.33233 12.8961 1.33233 13.4221 1.33233 13.9675C1.92447 13.9675 2.49547 13.9675 3.08761 13.9675C3.08761 13.4221 3.08761 12.8961 3.08761 12.3506ZM4.54683 12.3506C4.54683 12.9156 4.54683 13.4416 4.54683 13.9675C5.16012 13.9675 5.73112 13.9675 6.30211 13.9675C6.30211 13.4221 6.30211 12.8961 6.30211 12.3506C5.70997 12.3506 5.16012 12.3506 4.54683 12.3506ZM14.6979 12.3506C14.6979 12.8961 14.6979 13.4221 14.6979 13.9675C15.29 13.9675 15.8822 13.9675 16.4532 13.9675C16.4532 13.4026 16.4532 12.8766 16.4532 12.3506C15.8399 12.3506 15.29 12.3506 14.6979 12.3506ZM17.9124 13.9675C18.5257 13.9675 19.0967 13.9675 19.6677 13.9675C19.6677 13.4221 19.6677 12.8961 19.6677 12.3506C19.0755 12.3506 18.5045 12.3506 17.9124 12.3506C17.9124 12.8961 17.9124 13.4221 17.9124 13.9675ZM1.33233 16.9091C1.94562 16.9091 2.51662 16.9091 3.10876 16.9091C3.10876 16.3636 3.10876 15.8377 3.10876 15.2922C2.51662 15.2922 1.92447 15.2922 1.33233 15.2922C1.33233 15.8571 1.33233 16.3636 1.33233 16.9091ZM6.32326 15.3117C5.73112 15.3117 5.13897 15.3117 4.56798 15.3117C4.56798 15.8571 4.56798 16.3831 4.56798 16.9091C5.18127 16.9091 5.75227 16.9091 6.32326 16.9091C6.32326 16.3636 6.32326 15.8571 6.32326 15.3117ZM14.6979 16.9091C15.3112 16.9091 15.8822 16.9091 16.4532 16.9091C16.4532 16.3442 16.4532 15.8182 16.4532 15.2922C15.861 15.2922 15.29 15.2922 14.6979 15.2922C14.6979 15.8377 14.6979 16.3636 14.6979 16.9091ZM19.6677 15.2922C19.0544 15.2922 18.4834 15.2922 17.9124 15.2922C17.9124 15.8377 17.9124 16.3831 17.9124 16.9091C18.5045 16.9091 19.0967 16.9091 19.6677 16.9091C19.6677 16.3636 19.6677 15.8377 19.6677 15.2922Z" fill="#002F61"/>
<path d="M20.9577 7.50001C19.435 7.50001 17.9758 7.50001 16.5166 7.50001C16.3686 7.50001 16.1994 7.40261 16.0725 7.3052C14.2961 5.94157 12.5408 4.57793 10.7855 3.21429C10.6798 3.13637 10.574 3.05845 10.4471 2.96104C9.68581 3.54546 8.94562 4.11039 8.20544 4.69481C7.06345 5.57143 5.9426 6.44806 4.80061 7.32468C4.69487 7.42209 4.52568 7.50001 4.37765 7.50001C2.98188 7.51949 1.56496 7.50001 0.0845976 7.50001C0.296078 7.28572 0.444114 7.12988 0.613298 6.97403C1.6284 6.11689 2.64351 5.25975 3.67976 4.42208C3.8278 4.3052 4.03928 4.22728 4.22961 4.22728C5.09668 4.2078 5.9426 4.22728 6.80967 4.2078C6.97886 4.2078 7.19034 4.12988 7.33837 4.03247C8.16315 3.4091 8.96677 2.78572 9.7704 2.16234C10.4048 1.67533 10.4683 1.67533 11.1239 2.16234C11.5468 2.49351 11.9698 2.82468 12.4773 3.21429C12.4773 2.64935 12.4773 2.16234 12.4773 1.67533C12.4773 1.24675 12.4773 0.818183 12.4773 0.409091C12.4773 0.194805 12.5619 0.0194805 12.8369 0.0194805C13.9366 0 15.0151 0 16.1148 0C16.1148 0.584416 16.1148 1.12987 16.1148 1.71429C15.142 1.71429 14.1692 1.71429 13.1541 1.71429C13.1541 2.22078 13.1752 2.7078 13.1541 3.19481C13.1329 3.58442 13.2387 3.87663 13.5982 4.05195C13.7462 4.12987 13.9366 4.2078 14.1057 4.2078C15.1208 4.22728 16.136 4.2078 17.1722 4.22728C17.3202 4.22728 17.4894 4.28572 17.5952 4.36364C18.6949 5.35715 19.7734 6.35066 20.852 7.34416C20.852 7.38313 20.8731 7.42209 20.9577 7.50001Z" fill="#002F61"/>
</svg>
