<svg width="23" height="17" viewBox="0 0 23 17" fill="none" xmlns="http://www.w3.org/2000/svg">
<path d="M22.5669 4.86532C22.5034 4.83696 20.9546 4.14703 11.7851 0.0609782C11.6027 -0.0203261 11.396 -0.0203261 11.2136 0.0609782L0.431814 4.86532C-0.14672 5.12259 -0.141149 5.96704 0.431814 6.22163C2.52636 7.15483 5.95053 8.68081 11.2136 11.026C11.3949 11.1068 11.6016 11.1078 11.7851 11.026C12.2848 10.8033 19.0947 7.76877 19.406 7.63013V15.501C19.406 15.8991 19.7037 16.2416 20.0904 16.26C20.5032 16.2798 20.8436 15.9418 20.8436 15.5217V7.36206C20.8436 7.24592 20.7599 7.14785 20.6479 7.13302C19.2988 6.95424 12.9362 6.10979 11.4073 5.90704C10.965 5.85021 10.6895 5.38974 10.8057 4.97989C10.8969 4.63375 11.2165 4.41325 11.5402 4.43617C11.5725 4.43811 21.8158 5.79737 21.8084 5.7964C21.9998 5.82171 22.1571 5.94773 22.2327 6.11861C22.2855 6.23807 22.42 6.29282 22.5356 6.2371C22.729 6.14388 22.8967 6.02119 22.973 5.7435C23.0712 5.38369 22.8938 5.01066 22.5669 4.86532Z" fill="#002F61"/>
<path d="M10.6417 12.3823L4.6254 9.70145C4.47706 9.63535 4.31147 9.74719 4.31147 9.9134V12.5652C4.31147 15.0519 7.46875 17 11.4993 17C15.53 17 18.6872 15.0519 18.6872 12.5652V9.9134C18.6872 9.74719 18.5216 9.63539 18.3733 9.70145L12.3565 12.3823C11.8102 12.6265 11.1886 12.6263 10.6417 12.3823Z" fill="#002F61"/>
</svg>
