<svg width="23" height="12" viewBox="0 0 23 12" fill="none" xmlns="http://www.w3.org/2000/svg">
<path d="M20.8704 10C20.8704 5.80935 17.24 2.4 12.7778 2.4H10.2222C5.75996 2.4 2.12963 5.80935 2.12963 10V10.4H20.8704V10Z" fill="#002F61"/>
<path d="M0.425926 12H22.5741C22.687 11.9999 22.7953 11.9577 22.8751 11.8827C22.955 11.8077 22.9999 11.706 23 11.6V11.2H0V11.6C0.000126825 11.706 0.0450417 11.8077 0.124891 11.8827C0.20474 11.9577 0.313002 11.9999 0.425926 12Z" fill="#002F61"/>
<path d="M13.2037 0H9.7963C9.68333 0 9.575 0.0421427 9.49512 0.117157C9.41524 0.192172 9.37037 0.293913 9.37037 0.4C9.37037 0.506087 9.41524 0.607828 9.49512 0.682843C9.575 0.757857 9.68333 0.8 9.7963 0.8H10.6481V1.6H12.3519V0.8H13.2037C13.3167 0.8 13.425 0.757857 13.5049 0.682843C13.5848 0.607828 13.6296 0.506087 13.6296 0.4C13.6296 0.293913 13.5848 0.192172 13.5049 0.117157C13.425 0.0421427 13.3167 0 13.2037 0Z" fill="#002F61"/>
</svg>
