<svg width="23" height="23" viewBox="0 0 23 23" fill="none" xmlns="http://www.w3.org/2000/svg">
<path d="M22.9482 11.3739L19.6835 8.10901V3.49168C19.6835 3.39394 19.6043 3.31474 19.5066 3.31474H14.8896L11.6251 0.0497907C11.5587 -0.0165969 11.4413 -0.0165969 11.375 0.0497907L8.11044 3.31474H3.49324C3.39551 3.31474 3.31632 3.39394 3.31632 3.49168V8.10901L0.0518031 11.3739C-0.0172677 11.443 -0.0172677 11.555 0.0518031 11.6241L3.31632 14.889V19.5063C3.31632 19.604 3.39551 19.6832 3.49324 19.6832H8.11037L11.3749 22.9482C11.4081 22.9814 11.453 23 11.5 23C11.5469 23 11.5919 22.9813 11.6251 22.9482L14.8896 19.6832H19.5066C19.6043 19.6832 19.6835 19.604 19.6835 19.5063V14.889L22.9482 11.6241C22.9814 11.5909 23 11.546 23 11.499C23 11.452 22.9814 11.407 22.9482 11.3739ZM17.1382 13.8346V17.1375H13.8352L11.5 19.4731L9.16476 17.1375H5.86167V13.8346L3.52657 11.499L5.86167 9.16336V5.8604H9.16476L11.5 3.5248L13.8352 5.8604H17.1382V9.16336L19.4734 11.499L17.1382 13.8346Z" fill="#002F61"/>
<path d="M16.1986 6.8003H13.4459L11.5 4.8539L9.55399 6.8003H6.80142V9.5527L4.85541 11.499L6.80142 13.4454V16.1978H9.55399L11.5 18.1442L13.4459 16.1978H16.1985V13.4454L18.1445 11.499L16.1985 9.5527V6.8003H16.1986ZM14.8777 12.3629H13.5853L14.4991 13.2766L14.5461 14.5454L13.2774 14.4984L12.3637 13.5846V14.8769L11.5 15.8071L10.6363 14.8768V13.5844L9.72249 14.4983L8.45388 14.5453L8.50087 13.2766L9.41464 12.3627L8.1224 12.3628L7.19221 11.4989L8.1224 10.6351L9.41464 10.6349L8.50087 9.72121L8.45388 8.45249L9.72249 8.49948L10.6363 9.41334V8.12098L11.5 7.19063L12.3637 8.12098V9.41334L13.2775 8.49948L14.5461 8.45249L14.4991 9.72121L13.5854 10.6351H14.8777L15.8077 11.4989L14.8777 12.3629Z" fill="#002F61"/>
<path d="M10.6697 9.49438L9.49539 10.6688V12.3293L10.6696 13.5036H12.3303L13.5043 12.3294V10.6686L12.3303 9.49438H10.6697Z" fill="#002F61"/>
</svg>
