<svg width="17" height="17" viewBox="0 0 17 17" fill="none" xmlns="http://www.w3.org/2000/svg">
<path d="M6.51795 10.9446L6.25298 12.4937C6.21686 12.7055 6.30514 12.919 6.48128 13.0454C6.6577 13.1715 6.89196 13.1884 7.0847 13.0889L8.49965 12.3619L9.9146 13.0891C9.99831 13.1318 10.0901 13.1534 10.1808 13.1534C10.2997 13.1534 10.4183 13.1167 10.5183 13.0455C10.6946 12.9191 10.7831 12.7057 10.7467 12.4939L10.482 10.9447L11.6214 9.84459C11.7772 9.69436 11.8327 9.47017 11.7658 9.26614C11.6987 9.06224 11.5191 8.91297 11.3035 8.88164L9.72476 8.65118L9.01369 7.24435C8.91725 7.0523 8.71744 6.93067 8.49951 6.93067C8.282 6.93067 8.08234 7.0523 7.98506 7.24435L7.27468 8.65118L5.69591 8.8815C5.47992 8.91283 5.30115 9.06211 5.2339 9.266C5.16665 9.47003 5.222 9.6945 5.37808 9.84446L6.51795 10.9446Z" fill="#002F61"/>
<path d="M15.2849 1.80727H13.4772V0.820212C13.4772 0.367202 13.1041 0 12.6438 0H12.5116C12.0514 0 11.6785 0.367202 11.6785 0.820212V1.80727H5.30018V0.820212C5.30018 0.367202 4.92714 0 4.46706 0H4.33478C3.87457 0 3.50167 0.367202 3.50167 0.820212V1.80727H1.71493C0.769463 1.80727 0 2.56442 0 3.49537V15.3119C0 16.2423 0.769463 17 1.71493 17H15.2851C16.2304 17 17 16.2424 17 15.3119V3.49537C16.9999 2.56442 16.2303 1.80727 15.2849 1.80727ZM15.0612 15.0917H1.93867V5.89322H15.0612V15.0917Z" fill="#002F61"/>
</svg>
