<svg width="25" height="25" viewBox="0 0 25 25" fill="none" xmlns="http://www.w3.org/2000/svg">
<path d="M24.9898 6.48148V18.5219C24.9898 19.1324 24.905 19.7192 24.7491 20.2788C24.7253 20.3602 24.7016 20.4416 24.6745 20.523C24.6745 20.523 24.6745 20.523 24.6745 20.5264C23.8675 23.0091 21.6059 24.8338 18.8933 24.9932H18.8899C18.7983 24.9966 18.7068 25 18.6118 25H16.3773V15.6695H18.9678C19.0018 15.6695 19.0323 15.6695 19.0628 15.6627C19.0865 15.6559 19.1136 15.6492 19.1374 15.6356C19.1882 15.6085 19.2323 15.5745 19.273 15.5406C19.3273 15.4965 19.3781 15.4491 19.4256 15.3982C19.7002 15.0963 19.7375 14.7436 19.7443 14.6147C19.8698 13.9635 19.9952 13.3157 20.1207 12.6645C20.1241 12.6543 20.1241 12.6441 20.1275 12.634C20.1343 12.6001 20.141 12.5695 20.1478 12.5356C20.1478 12.3253 20.0665 12.132 19.9342 11.9896C19.7884 11.8335 19.5816 11.7352 19.351 11.7352H16.3773V8.49274C16.4248 8.23158 16.5977 8.01452 16.8317 7.90937C16.8351 7.90598 16.8385 7.90598 16.8418 7.90259C16.852 7.8992 16.8622 7.89581 16.869 7.88902C16.8825 7.88224 16.8961 7.87885 16.9131 7.87207C16.9843 7.84832 17.0589 7.83476 17.1335 7.83137C17.1436 7.83137 17.1538 7.83137 17.164 7.83137H19.7477C19.7748 7.82119 19.8054 7.81102 19.8325 7.79745C19.8427 7.79406 19.8494 7.78727 19.8596 7.78388C19.8698 7.78049 19.8766 7.77371 19.8867 7.77032C20.1037 7.64822 20.2529 7.42097 20.2733 7.15982C20.2733 7.14964 20.2733 7.13607 20.2767 7.1259C20.2767 7.11572 20.2767 7.10555 20.2767 7.09537V4.70425C20.2767 4.2769 19.9308 3.93095 19.5036 3.93095H17.0148C16.574 3.93095 16.1501 3.992 15.7466 4.10731C14.8006 4.37525 13.9801 4.94166 13.3901 5.69461H13.4036C12.9967 6.21354 12.7051 6.82065 12.5559 7.48542C12.4949 7.76014 12.4576 8.04504 12.4474 8.33673V8.34351C12.4474 8.3876 12.444 8.43169 12.444 8.47918V11.7352H10.118C9.6772 11.7352 9.32456 12.0913 9.32456 12.5288V14.8725C9.32456 15.3134 9.68059 15.6661 10.118 15.6661H12.444V24.9932H6.32714C6.3034 24.9932 6.27628 24.9932 6.25254 24.9932C6.22202 24.9932 6.19151 24.9932 6.1576 24.9898C6.15421 24.9898 6.14743 24.9898 6.14404 24.9898C2.72277 24.8202 0 21.9882 0 18.5185V6.48148C0 3.56804 1.92255 1.10229 4.56734 0.288292C4.73688 0.237417 4.90641 0.189934 5.08273 0.152625C5.53031 0.0508751 5.99823 0 6.47972 0H18.5135C18.5237 0 18.5338 0 18.544 0C18.8322 0 19.117 0.02035 19.3951 0.0610501C19.3985 0.0610501 19.3985 0.0610501 19.4019 0.0610501C19.7511 0.108533 20.0868 0.18315 20.4157 0.2849C20.5378 0.322209 20.6598 0.362909 20.7785 0.407C22.5451 1.06498 23.9489 2.47592 24.5999 4.24637C24.6033 4.25994 24.6101 4.2735 24.6134 4.28707C24.8542 4.97219 24.9898 5.71157 24.9898 6.48148Z" fill="#1E4BA0"/>
</svg>
