<svg width="25" height="25" viewBox="0 0 25 25" fill="none" xmlns="http://www.w3.org/2000/svg">
<path d="M1.63074 1.73567C-0.328197 3.77004 0.0727316 5.93109 0.0727316 12.4963C0.0727316 17.9483 -0.878694 23.4137 4.10071 24.7004C5.6556 25.1002 19.4326 25.1002 20.9854 24.6983C23.0586 24.1635 24.7454 22.4822 24.976 19.5506C25.0082 19.1415 25.0082 5.8584 24.9749 5.44094C24.7298 2.31826 22.8072 0.518588 20.2739 0.154085C19.6933 0.0699685 19.577 0.0450452 16.598 0.0398528C6.0316 0.0450452 3.71536 -0.425382 1.63074 1.73567Z" fill="url(#paint0_linear)"/>
<path d="M12.5346 3.29941C8.76314 3.29941 5.18179 2.96398 3.81386 6.47401C3.24882 7.92371 3.33088 9.80646 3.33088 12.5023C3.33088 14.868 3.25505 17.0913 3.81386 18.5296C5.17868 22.0417 8.78911 21.7052 12.5325 21.7052C16.144 21.7052 19.8676 22.0812 21.2522 18.5296C21.8182 17.0654 21.7351 15.2107 21.7351 12.5023C21.7351 8.90715 21.9335 6.58616 20.1896 4.84361C18.4239 3.07821 16.0359 3.29941 12.5304 3.29941H12.5346ZM11.7099 4.95784C19.5768 4.94538 20.5781 4.07099 20.0255 16.218C19.8292 20.5141 16.5574 20.0427 12.5356 20.0427C5.20257 20.0427 4.99172 19.8329 4.99172 12.4982C4.99172 5.07831 5.57338 4.962 11.7099 4.95577V4.95784ZM17.4475 6.48543C16.8378 6.48543 16.3434 6.97974 16.3434 7.58933C16.3434 8.19891 16.8378 8.69322 17.4475 8.69322C18.0572 8.69322 18.5516 8.19891 18.5516 7.58933C18.5516 6.97974 18.0572 6.48543 17.4475 6.48543ZM12.5346 7.77625C9.92438 7.77625 7.8086 9.89265 7.8086 12.5023C7.8086 15.112 9.92438 17.2274 12.5346 17.2274C15.1448 17.2274 17.2595 15.112 17.2595 12.5023C17.2595 9.89265 15.1448 7.77625 12.5346 7.77625ZM12.5346 9.43469C16.5906 9.43469 16.5958 15.57 12.5346 15.57C8.47958 15.57 8.47335 9.43469 12.5346 9.43469Z" fill="white"/>
<defs>
<linearGradient id="paint0_linear" x1="1.67854" y1="23.3713" x2="24.8427" y2="3.31897" gradientUnits="userSpaceOnUse">
<stop stop-color="#FFDD55"/>
<stop offset="0.5" stop-color="#FF543E"/>
<stop offset="1" stop-color="#C837AB"/>
</linearGradient>
</defs>
</svg>
