<svg width="181" height="179" viewBox="0 0 181 179" fill="none" xmlns="http://www.w3.org/2000/svg">
<g filter="url(#filter0_d)">
<ellipse cx="90.0075" cy="89.5" rx="68.0075" ry="67.5" fill="white"/>
<path d="M157.015 89.5C157.015 126.22 127.022 156 90.0075 156C52.9932 156 23 126.22 23 89.5C23 52.7801 52.9932 23 90.0075 23C127.022 23 157.015 52.7801 157.015 89.5Z" stroke="url(#paint0_radial)" stroke-width="2"/>
</g>
<rect x="52" y="73" width="77" height="34" rx="17" fill="white" stroke="url(#paint1_radial)" stroke-width="2"/>
<path d="M67.7234 78.7H71.3834L79.4834 100H75.2234L73.2434 94.69H65.8034L63.8534 100H59.5934L67.7234 78.7ZM72.4934 91.78L69.5534 83.41L66.4934 91.78H72.4934ZM98.9796 94.51C98.9796 95.41 98.7996 96.2 98.4396 96.88C98.0796 97.56 97.5796 98.13 96.9396 98.59C96.3196 99.05 95.5896 99.4 94.7496 99.64C93.9296 99.88 93.0496 100 92.1096 100H81.8196V78.7H93.2196C93.9596 78.7 94.6296 78.86 95.2296 79.18C95.8296 79.5 96.3396 79.92 96.7596 80.44C97.1796 80.94 97.4996 81.52 97.7196 82.18C97.9596 82.82 98.0796 83.47 98.0796 84.13C98.0796 85.17 97.8196 86.15 97.2996 87.07C96.7796 87.97 96.0196 88.64 95.0196 89.08C96.2396 89.44 97.1996 90.09 97.8996 91.03C98.6196 91.95 98.9796 93.11 98.9796 94.51ZM94.8096 93.73C94.8096 93.35 94.7396 92.99 94.5996 92.65C94.4796 92.29 94.3096 91.98 94.0896 91.72C93.8696 91.46 93.6096 91.26 93.3096 91.12C93.0096 90.96 92.6796 90.88 92.3196 90.88H85.9596V96.49H92.1096C92.4896 96.49 92.8396 96.42 93.1596 96.28C93.4996 96.14 93.7896 95.95 94.0296 95.71C94.2696 95.45 94.4596 95.15 94.5996 94.81C94.7396 94.47 94.8096 94.11 94.8096 93.73ZM85.9596 82.24V87.61H91.4796C92.1796 87.61 92.7696 87.37 93.2496 86.89C93.7496 86.41 93.9996 85.75 93.9996 84.91C93.9996 84.09 93.7696 83.44 93.3096 82.96C92.8696 82.48 92.3196 82.24 91.6596 82.24H85.9596ZM100.92 89.2C100.92 87.9 101.15 86.62 101.61 85.36C102.09 84.08 102.78 82.94 103.68 81.94C104.58 80.94 105.68 80.13 106.98 79.51C108.28 78.89 109.76 78.58 111.42 78.58C113.38 78.58 115.07 79.01 116.49 79.87C117.93 80.73 119 81.85 119.7 83.23L116.52 85.42C116.24 84.82 115.9 84.32 115.5 83.92C115.1 83.5 114.67 83.17 114.21 82.93C113.75 82.69 113.27 82.52 112.77 82.42C112.27 82.3 111.78 82.24 111.3 82.24C110.26 82.24 109.35 82.45 108.57 82.87C107.81 83.29 107.17 83.84 106.65 84.52C106.15 85.18 105.77 85.94 105.51 86.8C105.25 87.64 105.12 88.48 105.12 89.32C105.12 90.26 105.27 91.17 105.57 92.05C105.87 92.91 106.29 93.67 106.83 94.33C107.39 94.99 108.05 95.52 108.81 95.92C109.59 96.32 110.44 96.52 111.36 96.52C111.84 96.52 112.34 96.46 112.86 96.34C113.38 96.22 113.87 96.03 114.33 95.77C114.81 95.51 115.25 95.18 115.65 94.78C116.05 94.36 116.37 93.86 116.61 93.28L120 95.23C119.66 96.03 119.17 96.74 118.53 97.36C117.91 97.96 117.2 98.47 116.4 98.89C115.62 99.31 114.78 99.63 113.88 99.85C112.98 100.07 112.1 100.18 111.24 100.18C109.72 100.18 108.33 99.86 107.07 99.22C105.81 98.58 104.72 97.75 103.8 96.73C102.9 95.69 102.19 94.52 101.67 93.22C101.17 91.9 100.92 90.56 100.92 89.2Z" fill="url(#paint2_linear)"/>
<defs>
<filter id="filter0_d" x="0" y="0" width="180.015" height="179" filterUnits="userSpaceOnUse" color-interpolation-filters="sRGB">
<feFlood flood-opacity="0" result="BackgroundImageFix"/>
<feColorMatrix in="SourceAlpha" type="matrix" values="0 0 0 0 0 0 0 0 0 0 0 0 0 0 0 0 0 0 127 0"/>
<feMorphology radius="2" operator="dilate" in="SourceAlpha" result="effect1_dropShadow"/>
<feOffset/>
<feGaussianBlur stdDeviation="10"/>
<feColorMatrix type="matrix" values="0 0 0 0 0 0 0 0 0 0.290722 0 0 0 0 0.6 0 0 0 1 0"/>
<feBlend mode="normal" in2="BackgroundImageFix" result="effect1_dropShadow"/>
<feBlend mode="normal" in="SourceGraphic" in2="effect1_dropShadow" result="shape"/>
</filter>
<radialGradient id="paint0_radial" cx="0" cy="0" r="1" gradientUnits="userSpaceOnUse" gradientTransform="translate(54.7444 33) rotate(53.5267) scale(187.158 661.44)">
<stop offset="0.0885417" stop-color="#FFB300"/>
<stop offset="1" stop-color="white" stop-opacity="0"/>
</radialGradient>
<radialGradient id="paint1_radial" cx="0" cy="0" r="1" gradientUnits="userSpaceOnUse" gradientTransform="translate(70.0186 74.9333) rotate(30.6528) scale(82.5104 273.409)">
<stop offset="0.21207" stop-color="#FFB300"/>
<stop offset="1" stop-color="white" stop-opacity="0"/>
</radialGradient>
<linearGradient id="paint2_linear" x1="59" y1="76.3033" x2="100.141" y2="145.391" gradientUnits="userSpaceOnUse">
<stop offset="0.1875" stop-color="#FFB300"/>
<stop offset="1" stop-color="white" stop-opacity="0.31"/>
</linearGradient>
</defs>
</svg>
