<svg width="181" height="179" viewBox="0 0 181 179" fill="none" xmlns="http://www.w3.org/2000/svg">
<g filter="url(#filter0_d)">
<ellipse cx="90.0075" cy="89.5" rx="68.0075" ry="67.5" fill="white"/>
<path d="M157.015 89.5C157.015 126.22 127.022 156 90.0075 156C52.9932 156 23 126.22 23 89.5C23 52.7801 52.9932 23 90.0075 23C127.022 23 157.015 52.7801 157.015 89.5Z" stroke="url(#paint0_radial)" stroke-width="2"/>
</g>
<path d="M67.6251 103.661H71.9822V105.839H67.6251V103.661Z" fill="url(#paint1_linear)"/>
<path d="M66.8363 117.225C66.809 117.579 66.8552 117.935 66.9719 118.271C67.0887 118.606 67.2734 118.913 67.5147 119.174C67.7559 119.435 68.0484 119.642 68.3737 119.784C68.6991 119.927 69.0503 120 69.4054 120C69.427 120 69.4478 119.997 69.4694 119.997C69.5101 119.992 69.551 119.99 69.5919 119.991C70.2407 119.943 70.8477 119.652 71.291 119.176C71.7343 118.7 71.9812 118.074 71.9822 117.423V108.018H67.5445L66.8363 117.225Z" fill="url(#paint2_linear)"/>
<path d="M94.8572 115.643V101.034L92.5456 105.272C92.4519 105.443 92.3136 105.587 92.1453 105.687C91.9771 105.786 91.785 105.839 91.5893 105.839C91.3936 105.839 91.2016 105.786 91.0333 105.687C90.865 105.587 90.7268 105.443 90.6331 105.272L84.407 93.8571H80.7618C80.0342 93.86 79.3144 94.007 78.6439 94.2894C77.9733 94.5719 77.3654 94.9843 76.855 95.5029C76.3578 96.0053 75.9678 96.6035 75.7086 97.2611L74.1608 101.115V114.349L79.2608 104.867C79.5901 103.915 80.0681 103.022 80.6769 102.22C80.6815 102.212 80.6854 102.203 80.6905 102.196L80.7098 102.162L80.7123 102.163C80.7462 102.115 80.7838 102.069 80.8249 102.027C81.2283 101.522 81.6817 101.059 82.1782 100.646L83.573 102.319C82.0635 103.58 81.1158 105.388 80.9377 107.347C80.7596 109.306 81.3658 111.255 82.6231 112.767C82.7859 112.963 82.8751 113.21 82.875 113.464V120H100.304V117.625L95.7328 116.711C95.4859 116.662 95.2637 116.528 95.104 116.333C94.9444 116.139 94.8572 115.895 94.8572 115.643Z" fill="url(#paint3_linear)"/>
<path d="M80.7172 102.166C80.7392 102.137 80.7609 102.109 80.7832 102.08C80.7587 102.107 80.7356 102.135 80.7139 102.164L80.7172 102.166Z" fill="url(#paint4_linear)"/>
<path d="M96.4132 93.6312C95.9507 93.4262 95.5576 93.0914 95.2814 92.6675C95.0052 92.2436 94.8579 91.7487 94.8572 91.2428V87.9092C92.7299 88.5778 90.4487 88.5778 88.3215 87.9092V91.2428C88.3208 91.7487 88.1734 92.2436 87.8973 92.6675C87.6211 93.0914 87.2279 93.4262 86.7654 93.6312L88.0764 96.0357H95.1023L96.4132 93.6312Z" fill="url(#paint5_linear)"/>
<path d="M76.9474 92.7076C78.1073 92.0376 79.4223 91.6828 80.7618 91.6785H85.7072C85.8223 91.677 85.9322 91.6306 86.0136 91.5492C86.095 91.4678 86.1414 91.3579 86.1429 91.2428V86.9452C84.4881 85.9894 83.1138 84.6152 82.1578 82.9605C81.2019 81.3058 80.6979 79.4288 80.6965 77.5178V72.0714C80.6965 71.8921 80.7407 71.7156 80.8254 71.5575C80.91 71.3994 81.0323 71.2646 81.1815 71.1651C83.1645 69.8418 84.7686 68.0247 85.8357 65.8929L86.2578 65.0487C86.3313 64.9017 86.437 64.7733 86.5671 64.6731C86.6972 64.5728 86.8483 64.5032 87.0091 64.4696C87.1699 64.436 87.3362 64.4391 87.4956 64.4789C87.6549 64.5186 87.8033 64.5938 87.9295 64.699L88.548 65.2146C92.2608 68.3097 96.7616 70.3106 101.547 70.9932C101.806 71.0302 102.044 71.1596 102.216 71.3577C102.388 71.5558 102.482 71.8092 102.482 72.0714V77.5178C102.481 79.4288 101.977 81.3058 101.021 82.9605C100.065 84.6152 98.6905 85.9894 97.0357 86.9452V91.2428C97.0373 91.3579 97.0837 91.4678 97.165 91.5492C97.2464 91.6306 97.3564 91.677 97.4715 91.6785H102.406C103.75 91.6801 105.07 92.0375 106.232 92.7143L106.356 91.5918C106.42 91.013 106.454 90.4313 106.458 89.8489C106.456 87.7296 106.023 85.6329 105.184 83.6866C104.118 81.1868 103.634 78.4773 103.769 75.763L103.954 71.9965C103.965 71.7762 103.975 71.5667 103.975 71.3747C103.97 68.0924 102.663 64.9462 100.341 62.6263C98.0189 60.3064 94.8716 59.0023 91.5893 59C89.9118 59.0004 88.2519 59.3416 86.7103 60.0029C85.1686 60.6642 83.7775 61.6319 82.6211 62.8472C81.4648 64.0625 80.5675 65.5001 79.9837 67.0727C79.3998 68.6453 79.1415 70.3201 79.2246 71.9956L79.4098 75.765C79.4215 76.0654 79.4329 76.3641 79.4329 76.6682C79.437 79.0818 78.9473 81.4708 77.9938 83.6881C76.9254 86.1755 76.5219 88.8979 76.8228 91.5882L76.9474 92.7076Z" fill="url(#paint6_linear)"/>
<path d="M100.304 77.5178V73C95.6504 72.1763 91.2786 70.1971 87.5895 67.2441C86.4488 69.3782 84.8364 71.224 82.875 72.6411V77.5178C82.875 79.829 83.7931 82.0455 85.4274 83.6798C87.0616 85.314 89.2781 86.2321 91.5893 86.2321C93.9005 86.2321 96.117 85.314 97.7512 83.6798C99.3855 82.0455 100.304 79.829 100.304 77.5178ZM86.6875 76.4285C86.3644 76.4285 86.0485 76.3327 85.7798 76.1532C85.5111 75.9736 85.3017 75.7185 85.178 75.4199C85.0543 75.1213 85.022 74.7928 85.085 74.4759C85.1481 74.1589 85.3037 73.8678 85.5322 73.6393C85.7607 73.4108 86.0518 73.2551 86.3688 73.1921C86.6857 73.129 87.0143 73.1614 87.3128 73.2851C87.6114 73.4087 87.8666 73.6182 88.0461 73.8869C88.2256 74.1556 88.3215 74.4715 88.3215 74.7946C88.321 75.2278 88.1487 75.6431 87.8424 75.9495C87.5361 76.2558 87.1207 76.4281 86.6875 76.4285ZM91.5893 81.875C90.7229 81.874 89.8923 81.5294 89.2797 80.9168C88.667 80.3041 88.3224 79.4735 88.3215 78.6071H90.5C90.5 78.896 90.6148 79.1731 90.8191 79.3774C91.0234 79.5816 91.3004 79.6964 91.5893 79.6964C91.8782 79.6964 92.1553 79.5816 92.3596 79.3774C92.5638 79.1731 92.6786 78.896 92.6786 78.6071H94.8572C94.8562 79.4735 94.5116 80.3041 93.899 80.9168C93.2863 81.5294 92.4557 81.874 91.5893 81.875ZM96.4911 76.4285C96.1679 76.4285 95.852 76.3327 95.5833 76.1532C95.3146 75.9736 95.1052 75.7185 94.9815 75.4199C94.8579 75.1213 94.8255 74.7928 94.8886 74.4759C94.9516 74.1589 95.1072 73.8678 95.3357 73.6393C95.5642 73.4108 95.8554 73.2551 96.1723 73.1921C96.4893 73.129 96.8178 73.1614 97.1164 73.2851C97.4149 73.4087 97.6701 73.6182 97.8497 73.8869C98.0292 74.1556 98.125 74.4715 98.125 74.7946C98.1246 75.2278 97.9523 75.6431 97.6459 75.9495C97.3396 76.2558 96.9243 76.4281 96.4911 76.4285Z" fill="url(#paint7_linear)"/>
<path d="M93.9134 98.2142H89.2652L91.5893 102.475L93.9134 98.2142Z" fill="url(#paint8_linear)"/>
<path d="M69.3627 92.0946C69.2132 92.132 69.0739 92.2025 68.9552 92.3009C68.8365 92.3993 68.7414 92.5231 68.677 92.6632C68.6126 92.8033 68.5804 92.956 68.583 93.1102C68.5855 93.2644 68.6226 93.416 68.6916 93.5539L69.6887 95.5483C69.7718 95.7144 69.811 95.899 69.8027 96.0845C69.7944 96.27 69.7387 96.4503 69.6411 96.6083C69.5435 96.7663 69.4071 96.8967 69.2449 96.9871C69.0827 97.0775 68.9001 97.125 68.7143 97.1249H64.8108C63.6272 97.1235 62.4601 96.848 61.4009 96.32L60.3153 95.777C60.2824 95.7594 60.2453 95.751 60.208 95.7527C60.1708 95.7543 60.1346 95.766 60.1034 95.7865C60.0712 95.8054 60.0446 95.8325 60.0264 95.8652C60.0082 95.8978 59.9991 95.9347 60.0001 95.9721V99.0463C59.9994 99.2487 60.0554 99.4473 60.1619 99.6195C60.2683 99.7918 60.4208 99.9307 60.6022 100.021L62.3751 100.907C63.1317 101.284 63.9654 101.481 64.8108 101.482H71.9822V96.2455L70.5684 92.711C70.4753 92.4804 70.3021 92.291 70.0806 92.1778C69.8591 92.0646 69.6042 92.035 69.3627 92.0946Z" fill="url(#paint9_linear)"/>
<path d="M97.0357 114.75L105.75 116.493V103.464L97.0357 101.722V114.75Z" fill="url(#paint10_linear)"/>
<path d="M113.658 118.44L111.412 118.889H111.41C111.402 118.891 111.394 118.891 111.386 118.893C111.366 118.896 111.345 118.9 111.325 118.902C111.522 119.236 111.802 119.513 112.139 119.705C112.476 119.898 112.857 119.999 113.244 120C113.36 120.001 113.475 119.992 113.589 119.973C114.026 119.898 114.431 119.697 114.755 119.395C114.29 119.213 113.902 118.876 113.658 118.44V118.44Z" fill="url(#paint11_linear)"/>
<path d="M112.286 116.493L113.375 116.275V113.32C113.373 112.726 113.583 112.151 113.967 111.698C114.351 111.245 114.884 110.943 115.47 110.847L119.17 110.23C119.81 110.123 120.466 110.269 121 110.637V101.722L112.286 103.464V116.493Z" fill="url(#paint12_linear)"/>
<path d="M112.42 99.8408C111.962 99.916 111.529 100.106 111.164 100.393C110.798 100.68 110.51 101.054 110.328 101.482H111.089L121 99.4997V98.4104L112.42 99.8408Z" fill="url(#paint13_linear)"/>
<path d="M119.794 112.453C119.736 112.403 119.661 112.375 119.584 112.375C119.565 112.375 119.546 112.377 119.528 112.38L115.828 112.996C115.751 113.009 115.681 113.049 115.631 113.108C115.581 113.167 115.553 113.243 115.554 113.321V117.369L119.911 116.643H119.912L119.911 112.704C119.911 112.656 119.901 112.609 119.881 112.566C119.861 112.522 119.831 112.484 119.794 112.453Z" fill="url(#paint14_linear)"/>
<path d="M106.33 95.5424L106.31 95.5217C105.806 94.9947 105.2 94.5755 104.529 94.2894C103.858 94.0033 103.135 93.8562 102.406 93.8571H98.7717L97.4544 96.2719L105.974 97.6918C106.673 97.8076 107.34 98.0723 107.928 98.4679L107.46 97.2864C107.209 96.633 106.824 96.039 106.33 95.5424Z" fill="url(#paint15_linear)"/>
<path d="M105.615 99.8408L97.0357 98.4107V99.5L106.948 101.482H107.709C107.526 101.055 107.239 100.68 106.873 100.393C106.507 100.106 106.074 99.9158 105.615 99.8408Z" fill="url(#paint16_linear)"/>
<path d="M107.929 103.661H110.107V116.732H107.929V103.661Z" fill="url(#paint17_linear)"/>
<defs>
<filter id="filter0_d" x="0" y="0" width="180.015" height="179" filterUnits="userSpaceOnUse" color-interpolation-filters="sRGB">
<feFlood flood-opacity="0" result="BackgroundImageFix"/>
<feColorMatrix in="SourceAlpha" type="matrix" values="0 0 0 0 0 0 0 0 0 0 0 0 0 0 0 0 0 0 127 0"/>
<feMorphology radius="2" operator="dilate" in="SourceAlpha" result="effect1_dropShadow"/>
<feOffset/>
<feGaussianBlur stdDeviation="10"/>
<feColorMatrix type="matrix" values="0 0 0 0 0 0 0 0 0 0.290722 0 0 0 0 0.6 0 0 0 1 0"/>
<feBlend mode="normal" in2="BackgroundImageFix" result="effect1_dropShadow"/>
<feBlend mode="normal" in="SourceGraphic" in2="effect1_dropShadow" result="shape"/>
</filter>
<radialGradient id="paint0_radial" cx="0" cy="0" r="1" gradientUnits="userSpaceOnUse" gradientTransform="translate(54.7444 33) rotate(53.5267) scale(187.158 661.44)">
<stop offset="0.0885417" stop-color="#FFB300"/>
<stop offset="1" stop-color="white" stop-opacity="0"/>
</radialGradient>
<linearGradient id="paint1_linear" x1="60" y1="66.5" x2="141.438" y2="143.702" gradientUnits="userSpaceOnUse">
<stop offset="0.1875" stop-color="#FFB300"/>
<stop offset="1" stop-color="white" stop-opacity="0.31"/>
</linearGradient>
<linearGradient id="paint2_linear" x1="60" y1="66.5" x2="141.438" y2="143.702" gradientUnits="userSpaceOnUse">
<stop offset="0.1875" stop-color="#FFB300"/>
<stop offset="1" stop-color="white" stop-opacity="0.31"/>
</linearGradient>
<linearGradient id="paint3_linear" x1="60" y1="66.5" x2="141.438" y2="143.702" gradientUnits="userSpaceOnUse">
<stop offset="0.1875" stop-color="#FFB300"/>
<stop offset="1" stop-color="white" stop-opacity="0.31"/>
</linearGradient>
<linearGradient id="paint4_linear" x1="60" y1="66.5" x2="141.438" y2="143.702" gradientUnits="userSpaceOnUse">
<stop offset="0.1875" stop-color="#FFB300"/>
<stop offset="1" stop-color="white" stop-opacity="0.31"/>
</linearGradient>
<linearGradient id="paint5_linear" x1="60" y1="66.5" x2="141.438" y2="143.702" gradientUnits="userSpaceOnUse">
<stop offset="0.1875" stop-color="#FFB300"/>
<stop offset="1" stop-color="white" stop-opacity="0.31"/>
</linearGradient>
<linearGradient id="paint6_linear" x1="60" y1="66.5" x2="141.438" y2="143.702" gradientUnits="userSpaceOnUse">
<stop offset="0.1875" stop-color="#FFB300"/>
<stop offset="1" stop-color="white" stop-opacity="0.31"/>
</linearGradient>
<linearGradient id="paint7_linear" x1="60" y1="66.5" x2="141.438" y2="143.702" gradientUnits="userSpaceOnUse">
<stop offset="0.1875" stop-color="#FFB300"/>
<stop offset="1" stop-color="white" stop-opacity="0.31"/>
</linearGradient>
<linearGradient id="paint8_linear" x1="60" y1="66.5" x2="141.438" y2="143.702" gradientUnits="userSpaceOnUse">
<stop offset="0.1875" stop-color="#FFB300"/>
<stop offset="1" stop-color="white" stop-opacity="0.31"/>
</linearGradient>
<linearGradient id="paint9_linear" x1="60" y1="66.5" x2="141.438" y2="143.702" gradientUnits="userSpaceOnUse">
<stop offset="0.1875" stop-color="#FFB300"/>
<stop offset="1" stop-color="white" stop-opacity="0.31"/>
</linearGradient>
<linearGradient id="paint10_linear" x1="60" y1="66.5" x2="141.438" y2="143.702" gradientUnits="userSpaceOnUse">
<stop offset="0.1875" stop-color="#FFB300"/>
<stop offset="1" stop-color="white" stop-opacity="0.31"/>
</linearGradient>
<linearGradient id="paint11_linear" x1="60" y1="66.5" x2="141.438" y2="143.702" gradientUnits="userSpaceOnUse">
<stop offset="0.1875" stop-color="#FFB300"/>
<stop offset="1" stop-color="white" stop-opacity="0.31"/>
</linearGradient>
<linearGradient id="paint12_linear" x1="60" y1="66.5" x2="141.438" y2="143.702" gradientUnits="userSpaceOnUse">
<stop offset="0.1875" stop-color="#FFB300"/>
<stop offset="1" stop-color="white" stop-opacity="0.31"/>
</linearGradient>
<linearGradient id="paint13_linear" x1="60" y1="66.5" x2="141.438" y2="143.702" gradientUnits="userSpaceOnUse">
<stop offset="0.1875" stop-color="#FFB300"/>
<stop offset="1" stop-color="white" stop-opacity="0.31"/>
</linearGradient>
<linearGradient id="paint14_linear" x1="60" y1="66.5" x2="141.438" y2="143.702" gradientUnits="userSpaceOnUse">
<stop offset="0.1875" stop-color="#FFB300"/>
<stop offset="1" stop-color="white" stop-opacity="0.31"/>
</linearGradient>
<linearGradient id="paint15_linear" x1="60" y1="66.5" x2="141.438" y2="143.702" gradientUnits="userSpaceOnUse">
<stop offset="0.1875" stop-color="#FFB300"/>
<stop offset="1" stop-color="white" stop-opacity="0.31"/>
</linearGradient>
<linearGradient id="paint16_linear" x1="60" y1="66.5" x2="141.438" y2="143.702" gradientUnits="userSpaceOnUse">
<stop offset="0.1875" stop-color="#FFB300"/>
<stop offset="1" stop-color="white" stop-opacity="0.31"/>
</linearGradient>
<linearGradient id="paint17_linear" x1="60" y1="66.5" x2="141.438" y2="143.702" gradientUnits="userSpaceOnUse">
<stop offset="0.1875" stop-color="#FFB300"/>
<stop offset="1" stop-color="white" stop-opacity="0.31"/>
</linearGradient>
</defs>
</svg>
