<svg width="179" height="179" viewBox="0 0 179 179" fill="none" xmlns="http://www.w3.org/2000/svg">
<g filter="url(#filter0_d)">
<circle cx="89.5" cy="89.5" r="67.5" fill="white"/>
<circle cx="89.5" cy="89.5" r="66.5" stroke="url(#paint0_radial)" stroke-width="2"/>
</g>
<path d="M88.7717 53C89.275 53 89.6723 53 90.202 53C90.4669 54.3952 90.7053 55.8695 90.9966 57.3173C91.5264 59.8182 92.6918 61.7926 95.1021 63.1089C97.5919 64.4778 99.8433 66.2943 102.254 67.8738C103.631 68.7688 104.028 69.9535 103.922 71.5856C103.498 77.4035 101.883 82.8265 99.0486 87.96C98.2011 89.4868 98.307 91.4876 97.8832 93.2514C97.5124 94.8045 97.1946 96.4367 96.5059 97.8583C94.3605 102.255 94.4134 106.467 97.1946 110.573C97.9627 111.705 98.7043 112.837 99.34 114.048C99.8168 114.917 100.426 115.101 101.379 115.022C105.405 114.654 109.405 114.601 113.352 115.654C114.411 115.944 115.471 116.312 116.398 116.865C118.516 118.129 118.569 120.314 116.345 121.367C114.014 122.472 111.524 123.42 109.008 123.894C102.201 125.131 95.367 125.5 88.4804 124.342C86.5204 124.026 84.4544 124.342 82.4414 124.473C81.0376 124.578 79.6338 124.868 78.2565 125.158C77.3294 125.342 76.4553 125.71 75.5548 126C75.0515 124.947 75.2105 124.736 78.3094 122.709C77.3559 122.762 76.7467 122.841 76.1375 122.815C72.5353 122.709 68.9066 122.63 65.3309 122.393C64.3773 122.341 63.3708 121.867 62.5233 121.34C60.5367 120.156 60.4573 117.997 62.4968 116.97C64.2979 116.049 66.3639 115.365 68.3769 115.18C71.4758 114.864 74.6278 114.996 77.7532 115.049C78.6008 115.075 79.157 114.943 79.5808 114.18C80.4814 112.627 81.4879 111.126 82.4149 109.573C84.2955 106.414 84.6398 103.018 83.2095 99.7274C81.8057 96.4894 80.7462 93.2777 80.6668 89.7501C80.6403 89.0656 80.2165 88.3285 79.8457 87.6967C76.8262 82.5106 75.2899 76.9034 75.0515 70.9275C74.9986 69.6902 75.4488 68.8215 76.4289 68.137C79.0511 66.3469 81.6203 64.4778 84.3219 62.8457C86.0436 61.819 87.1031 60.4501 87.5798 58.581C88.0301 56.7382 88.3744 54.8691 88.7717 53ZM89.3545 61.6084C88.3215 62.3981 87.0766 63.1879 86.0701 64.1882C83.8452 66.3732 81.7262 68.6635 79.6073 70.9802C79.3159 71.2961 79.263 71.9542 79.3159 72.4281C79.7662 76.1662 81.223 79.5096 83.3949 82.5633C83.7657 83.0898 84.1895 83.6689 84.7193 83.9849C85.1695 84.2744 85.8317 84.2481 86.3879 84.3797C86.4939 83.7216 86.6793 83.0635 86.7058 82.4053C86.7058 82.1421 86.3349 81.8262 86.0966 81.5893C83.8452 79.0884 83.2095 74.4025 84.7987 71.454C85.8052 69.5586 87.3414 68.4266 89.5663 68.4793C91.7912 68.5319 93.2745 69.6902 94.228 71.612C95.1021 73.4284 95.2345 75.3238 94.8107 77.2719C94.4399 79.0094 93.8837 80.6415 92.5329 81.9315C91.7912 82.6423 91.7912 83.669 92.5329 84.2744C92.8507 84.5377 93.8307 84.0902 94.4399 83.8532C94.7313 83.7479 94.9432 83.3794 95.1551 83.1161C97.5654 79.8781 99.1281 76.2979 99.6314 72.2964C99.6843 71.8752 99.5784 71.2697 99.287 71.0065C96.4 68.0844 94.0161 64.6094 90.3874 62.4244C90.0166 62.1349 89.6723 61.8453 89.3545 61.6084Z" fill="url(#paint1_linear)"/>
<defs>
<filter id="filter0_d" x="0" y="0" width="179" height="179" filterUnits="userSpaceOnUse" color-interpolation-filters="sRGB">
<feFlood flood-opacity="0" result="BackgroundImageFix"/>
<feColorMatrix in="SourceAlpha" type="matrix" values="0 0 0 0 0 0 0 0 0 0 0 0 0 0 0 0 0 0 127 0"/>
<feMorphology radius="2" operator="dilate" in="SourceAlpha" result="effect1_dropShadow"/>
<feOffset/>
<feGaussianBlur stdDeviation="10"/>
<feColorMatrix type="matrix" values="0 0 0 0 0 0 0 0 0 0.290722 0 0 0 0 0.6 0 0 0 1 0"/>
<feBlend mode="normal" in2="BackgroundImageFix" result="effect1_dropShadow"/>
<feBlend mode="normal" in="SourceGraphic" in2="effect1_dropShadow" result="shape"/>
</filter>
<radialGradient id="paint0_radial" cx="0" cy="0" r="1" gradientUnits="userSpaceOnUse" gradientTransform="translate(54.5001 33) rotate(53.7316) scale(186.666 658.235)">
<stop offset="0.0885417" stop-color="#FFB300"/>
<stop offset="1" stop-color="white" stop-opacity="0"/>
</radialGradient>
<linearGradient id="paint1_linear" x1="61" y1="61.9754" x2="154.342" y2="131.068" gradientUnits="userSpaceOnUse">
<stop offset="0.1875" stop-color="#FFB300"/>
<stop offset="1" stop-color="white" stop-opacity="0.31"/>
</linearGradient>
</defs>
</svg>
