<svg width="179" height="179" viewBox="0 0 179 179" fill="none" xmlns="http://www.w3.org/2000/svg">
<g filter="url(#filter0_d)">
<circle cx="89.5" cy="89.5" r="67.5" fill="white"/>
<circle cx="89.5" cy="89.5" r="66.5" stroke="url(#paint0_radial)" stroke-width="2"/>
</g>
<path d="M91.9745 70.0543C90.3449 69.0292 88.6249 69.0594 86.9954 70.0543C85.3658 71.0793 84.6718 72.6169 84.7925 74.5162C84.8227 74.9082 84.9434 75.0891 85.396 75.0891C86.7539 75.0589 88.1119 75.0891 89.4396 75.0891C90.7976 75.0891 92.1555 75.0589 93.4833 75.0891C93.9661 75.0891 94.117 74.9383 94.1472 74.4861C94.298 72.5867 93.604 71.0492 91.9745 70.0543ZM117.021 80.4253C117.021 79.2194 116.629 78.7973 115.361 78.7973C112.132 78.7973 108.934 78.7973 105.705 78.7973C91.6727 78.7973 77.6708 78.7973 63.6388 78.7973C62.311 78.7973 61.9188 79.1892 61.9188 80.4856V109.73H62.7033C67.8333 109.73 72.9935 109.73 78.1235 109.73C79.1797 109.73 79.9039 110.152 80.266 111.147C80.6281 112.081 81.0204 112.986 81.3524 113.92C81.4731 114.252 81.6541 114.403 82.0464 114.403C86.9652 114.372 91.9141 114.372 96.8329 114.403C97.195 114.403 97.3459 114.282 97.4666 113.95C97.7985 113.046 98.1908 112.141 98.5529 111.237C99.0357 110.031 99.5186 109.73 100.816 109.73C105.011 109.73 109.235 109.73 113.43 109.73H116.961V108.916C117.021 99.4188 117.021 89.9221 117.021 80.4253ZM82.9517 102.373C82.7103 102.253 82.5292 102.192 82.3784 102.132C79.0288 100.414 75.6792 98.6651 72.2994 96.9467C71.8468 96.7055 71.7261 96.4341 71.6657 95.9518C71.5149 94.7458 71.9675 94.1429 73.0539 93.6303C76.162 92.1531 79.1797 90.5251 82.2275 88.9272C82.4387 88.8367 82.6499 88.7463 82.9517 88.5956C82.9517 89.7412 82.9819 90.8265 82.9215 91.8817C82.9215 92.0325 82.6801 92.2435 82.4991 92.334C80.6583 93.2686 78.8175 94.2032 76.9466 95.1076C76.7354 95.1981 76.5543 95.3187 76.2827 95.4694C76.5241 95.59 76.675 95.7106 76.8561 95.801C78.6968 96.7356 80.5376 97.6702 82.4085 98.5747C82.831 98.7857 82.9819 99.0269 82.9517 99.5093C82.9215 100.414 82.9517 101.348 82.9517 102.373ZM93.272 89.8618C91.7029 93.9017 90.1337 97.9416 88.5947 102.012C88.4136 102.494 88.1722 102.645 87.6592 102.615C86.7841 102.584 85.9392 102.615 84.9434 102.615C85.4564 101.258 85.9694 99.9615 86.4522 98.6953C87.9912 94.6554 89.5603 90.6456 91.0993 86.6058C91.2502 86.244 91.4011 86.0631 91.8236 86.0932C92.7591 86.1234 93.7247 86.0932 94.7507 86.0932C94.2075 87.3896 93.7549 88.6257 93.272 89.8618ZM105.765 97.4893C102.747 98.9063 99.8203 100.504 96.863 102.012C96.6518 102.132 96.4104 102.223 96.0483 102.404C96.0483 101.228 96.0181 100.173 96.0785 99.1174C96.0785 98.9365 96.35 98.7254 96.5613 98.635C98.402 97.7004 100.243 96.7959 102.114 95.8613C102.325 95.7709 102.506 95.6503 102.808 95.4995C102.597 95.379 102.446 95.2885 102.295 95.1981C100.394 94.2635 98.5227 93.2987 96.6216 92.3943C96.2293 92.2134 96.0483 92.0023 96.0785 91.5501C96.1086 90.6155 96.0785 89.6507 96.0785 88.6257C96.2897 88.7161 96.4707 88.7463 96.5915 88.8367C100.001 90.5854 103.411 92.334 106.851 94.0826C107.214 94.2635 107.304 94.5046 107.364 94.8966C107.545 96.2231 107.002 96.9165 105.765 97.4893Z" fill="url(#paint1_linear)"/>
<path d="M57 113.498C60.1987 113.498 63.4276 113.468 66.6263 113.468C69.9155 113.468 73.2349 113.468 76.5241 113.438C77.0975 113.438 77.3389 113.619 77.52 114.131C77.8217 115.036 78.214 115.88 78.5761 116.784C78.9383 117.689 79.572 118.111 80.5376 118.111C86.5125 118.111 92.4573 118.111 98.4322 118.111C99.428 118.111 100.062 117.659 100.424 116.754C100.786 115.789 101.178 114.825 101.601 113.89C101.691 113.709 101.933 113.498 102.114 113.498C108.692 113.498 115.271 113.498 121.849 113.498C121.879 113.498 121.879 113.498 121.97 113.528C121.97 113.679 122 113.86 122 114.041C122 116.181 122 118.322 122 120.432C122 121.518 121.547 122 120.461 122C99.8203 122 79.1797 122 58.539 122C57.8148 122 57.3621 121.668 57 121.096C57 118.563 57 116.031 57 113.498Z" fill="url(#paint2_linear)"/>
<path d="M91.1295 57.0603C91.3709 57.9949 91.6425 58.9295 91.8538 59.8641C92.0348 60.648 92.5176 61.1303 93.3022 61.3715C94.1472 61.673 95.0223 62.0046 95.8069 62.3966C96.6216 62.8186 97.376 62.7885 98.1305 62.3061C98.7943 61.884 99.4582 61.4921 100.152 61.1002C100.303 61.0097 100.635 61.0097 100.726 61.1002C101.42 61.7635 102.084 62.487 102.808 63.2106C102.355 63.9643 101.872 64.7783 101.359 65.532C100.877 66.2556 100.907 66.9791 101.269 67.7328C101.661 68.577 102.023 69.4212 102.355 70.2955C102.627 71.0793 103.11 71.5315 103.924 71.7124C104.86 71.9235 105.765 72.1647 106.701 72.3757C106.701 73.25 106.701 74.064 106.701 74.9685C103.773 74.9685 100.846 74.9685 97.8287 74.9685C98.0701 71.833 97.0441 69.2101 94.5093 67.2505C92.8496 65.9541 90.9485 65.4416 88.8663 65.5622C84.5812 65.7732 80.5074 69.6925 81.0204 74.9685C78.0933 74.9685 75.1662 74.9685 72.1787 74.9685C72.1787 74.1243 72.1787 73.2802 72.1787 72.3456C73.0237 72.1345 73.929 71.8933 74.8343 71.7124C75.7697 71.5315 76.3129 70.9889 76.5845 70.0844C76.8259 69.3006 77.1578 68.5469 77.5501 67.8233C78.033 66.949 78.0028 66.1651 77.4294 65.321C76.9466 64.5974 76.5241 63.8437 76.0715 63.1503C76.8259 62.3664 77.5803 61.6127 78.3649 60.7987C79.1797 61.2811 79.9944 61.7333 80.8092 62.2458C81.5636 62.7282 82.2878 62.7282 83.0724 62.3363C83.9174 61.9443 84.7925 61.6127 85.6676 61.3112C86.422 61.0399 86.9048 60.5877 87.0859 59.834C87.3273 58.8994 87.5385 57.9346 87.7799 57C88.9568 57.0603 90.0432 57.0603 91.1295 57.0603Z" fill="url(#paint3_linear)"/>
<path d="M117.021 80.4253C117.021 79.2194 116.629 78.7973 115.361 78.7973C112.132 78.7973 108.934 78.7973 105.705 78.7973C91.6727 78.7973 77.6708 78.7973 63.6388 78.7973C62.311 78.7973 61.9188 79.1892 61.9188 80.4856V109.73H62.7033C67.8333 109.73 72.9935 109.73 78.1235 109.73C79.1797 109.73 79.9039 110.152 80.266 111.147C80.6281 112.081 81.0204 112.986 81.3524 113.92C81.4731 114.252 81.6541 114.403 82.0464 114.403C86.9652 114.372 91.9141 114.372 96.8329 114.403C97.195 114.403 97.3459 114.282 97.4666 113.95C97.7985 113.046 98.1908 112.141 98.5529 111.237C99.0357 110.031 99.5186 109.73 100.816 109.73C105.011 109.73 109.235 109.73 113.43 109.73H116.961V108.916C117.021 99.4188 117.021 89.9221 117.021 80.4253ZM82.9517 102.373C82.7103 102.253 82.5292 102.192 82.3784 102.132C79.0288 100.414 75.6792 98.6651 72.2994 96.9467C71.8468 96.7055 71.7261 96.4341 71.6657 95.9518C71.5149 94.7458 71.9675 94.1429 73.0539 93.6303C76.162 92.1531 79.1797 90.5251 82.2275 88.9272C82.4387 88.8367 82.6499 88.7463 82.9517 88.5956C82.9517 89.7412 82.9819 90.8265 82.9215 91.8817C82.9215 92.0325 82.6801 92.2435 82.4991 92.334C80.6583 93.2686 78.8175 94.2032 76.9466 95.1076C76.7354 95.1981 76.5543 95.3187 76.2827 95.4694C76.5241 95.59 76.675 95.7106 76.8561 95.801C78.6968 96.7356 80.5376 97.6702 82.4085 98.5747C82.831 98.7857 82.9819 99.0269 82.9517 99.5093C82.9215 100.414 82.9517 101.348 82.9517 102.373ZM93.272 89.8618C91.7029 93.9017 90.1337 97.9416 88.5947 102.012C88.4136 102.494 88.1722 102.645 87.6592 102.615C86.7841 102.584 85.9392 102.615 84.9434 102.615C85.4564 101.258 85.9694 99.9615 86.4522 98.6953C87.9912 94.6554 89.5603 90.6456 91.0993 86.6058C91.2502 86.244 91.4011 86.0631 91.8236 86.0932C92.7591 86.1234 93.7247 86.0932 94.7507 86.0932C94.2075 87.3896 93.7549 88.6257 93.272 89.8618ZM105.765 97.4893C102.747 98.9063 99.8203 100.504 96.863 102.012C96.6518 102.132 96.4104 102.223 96.0483 102.404C96.0483 101.228 96.0181 100.173 96.0785 99.1174C96.0785 98.9365 96.35 98.7254 96.5613 98.635C98.402 97.7004 100.243 96.7959 102.114 95.8613C102.325 95.7709 102.506 95.6503 102.808 95.4995C102.597 95.379 102.446 95.2885 102.295 95.1981C100.394 94.2635 98.5227 93.2987 96.6216 92.3943C96.2293 92.2134 96.0483 92.0023 96.0785 91.5501C96.1086 90.6155 96.0785 89.6507 96.0785 88.6257C96.2897 88.7161 96.4707 88.7463 96.5915 88.8367C100.001 90.5854 103.411 92.334 106.851 94.0826C107.214 94.2635 107.304 94.5046 107.364 94.8966C107.545 96.2231 107.002 96.9165 105.765 97.4893Z" fill="url(#paint4_linear)"/>
<path d="M89.4698 75.0891C88.1119 75.0891 86.7539 75.0589 85.4262 75.0891C84.9735 75.0891 84.8227 74.9082 84.8227 74.5162C84.7019 72.6169 85.396 71.0492 87.0255 70.0543C88.6551 69.0292 90.3751 69.0292 92.0046 70.0543C93.6342 71.0793 94.3282 72.5867 94.2377 74.5162C94.2075 74.9685 94.0566 75.1192 93.5738 75.1192C92.1857 75.0589 90.8278 75.0891 89.4698 75.0891Z" fill="url(#paint5_linear)"/>
<defs>
<filter id="filter0_d" x="0" y="0" width="179" height="179" filterUnits="userSpaceOnUse" color-interpolation-filters="sRGB">
<feFlood flood-opacity="0" result="BackgroundImageFix"/>
<feColorMatrix in="SourceAlpha" type="matrix" values="0 0 0 0 0 0 0 0 0 0 0 0 0 0 0 0 0 0 127 0"/>
<feMorphology radius="2" operator="dilate" in="SourceAlpha" result="effect1_dropShadow"/>
<feOffset/>
<feGaussianBlur stdDeviation="10"/>
<feColorMatrix type="matrix" values="0 0 0 0 0 0 0 0 0 0.290722 0 0 0 0 0.6 0 0 0 1 0"/>
<feBlend mode="normal" in2="BackgroundImageFix" result="effect1_dropShadow"/>
<feBlend mode="normal" in="SourceGraphic" in2="effect1_dropShadow" result="shape"/>
</filter>
<radialGradient id="paint0_radial" cx="0" cy="0" r="1" gradientUnits="userSpaceOnUse" gradientTransform="translate(54.5001 33) rotate(53.7316) scale(186.666 658.235)">
<stop offset="0.0885417" stop-color="#FFB300"/>
<stop offset="1" stop-color="white" stop-opacity="0"/>
</radialGradient>
<linearGradient id="paint1_linear" x1="57" y1="64.9918" x2="143.778" y2="147.257" gradientUnits="userSpaceOnUse">
<stop offset="0.1875" stop-color="#FFB300"/>
<stop offset="1" stop-color="white" stop-opacity="0.31"/>
</linearGradient>
<linearGradient id="paint2_linear" x1="57" y1="64.9918" x2="143.778" y2="147.257" gradientUnits="userSpaceOnUse">
<stop offset="0.1875" stop-color="#FFB300"/>
<stop offset="1" stop-color="white" stop-opacity="0.31"/>
</linearGradient>
<linearGradient id="paint3_linear" x1="57" y1="64.9918" x2="143.778" y2="147.257" gradientUnits="userSpaceOnUse">
<stop offset="0.1875" stop-color="#FFB300"/>
<stop offset="1" stop-color="white" stop-opacity="0.31"/>
</linearGradient>
<linearGradient id="paint4_linear" x1="57" y1="64.9918" x2="143.778" y2="147.257" gradientUnits="userSpaceOnUse">
<stop offset="0.1875" stop-color="#FFB300"/>
<stop offset="1" stop-color="white" stop-opacity="0.31"/>
</linearGradient>
<linearGradient id="paint5_linear" x1="57" y1="64.9918" x2="143.778" y2="147.257" gradientUnits="userSpaceOnUse">
<stop offset="0.1875" stop-color="#FFB300"/>
<stop offset="1" stop-color="white" stop-opacity="0.31"/>
</linearGradient>
</defs>
</svg>
